<?xml version="1.0" encoding="UTF-8" standalone="no"?>
<svg
   aria-hidden="true"
   role="img"
   class="iconify iconify--logos"
   width="120"
   height="30"
   preserveAspectRatio="xMidYMid"
   viewBox="0 0 854.99581 213.75"
   version="1.1"
   id="svg4"
   sodipodi:docname="app-logo.svg"
   inkscape:version="1.2.2 (b0a8486541, 2022-12-01)"
   xml:space="preserve"
   xmlns:inkscape="http://www.inkscape.org/namespaces/inkscape"
   xmlns:sodipodi="http://sodipodi.sourceforge.net/DTD/sodipodi-0.dtd"
   xmlns="http://www.w3.org/2000/svg"
   xmlns:svg="http://www.w3.org/2000/svg"><defs
     id="defs8"><linearGradient
       id="IconifyId1813088fe1fbc01fb466"
       x1="-0.0082799997"
       x2="0.57635999"
       y1="0.076519996"
       y2="0.78411001"><stop
         offset="0%"
         stop-color="#41D1FF"
         id="stop2" /><stop
         offset="100%"
         stop-color="#BD34FE"
         id="stop4" /></linearGradient><linearGradient
       id="IconifyId1813088fe1fbc01fb467"
       x1="0.43375999"
       x2="0.50316"
       y1="0.02242"
       y2="0.89029998"><stop
         offset="0%"
         stop-color="#FFEA83"
         id="stop7" /><stop
         offset="8.333%"
         stop-color="#FFDD35"
         id="stop9" /><stop
         offset="100%"
         stop-color="#FFA800"
         id="stop11" /></linearGradient></defs><sodipodi:namedview
     id="namedview6"
     pagecolor="#ffffff"
     bordercolor="#000000"
     borderopacity="0.25"
     inkscape:showpageshadow="2"
     inkscape:pageopacity="0.0"
     inkscape:pagecheckerboard="0"
     inkscape:deskcolor="#d1d1d1"
     showgrid="false"
     inkscape:zoom="33.8125"
     inkscape:cx="1.6414048"
     inkscape:cy="16.487985"
     inkscape:window-width="1366"
     inkscape:window-height="716"
     inkscape:window-x="0"
     inkscape:window-y="24"
     inkscape:window-maximized="1"
     inkscape:current-layer="svg4" /><g
     aria-label="Weather app"
     id="text899"
     style="font-size:103.746px;fill:#fa4a25;stroke-width:8.64547"
     transform="translate(188.02185,-0.7995043)"><path
       d="m 61.312671,153.48271 q -1.867429,0 -3.008635,-0.93372 -1.141206,-1.03746 -1.867428,-3.00863 L 33.508742,84.076632 q -0.726222,-2.178667 0.311238,-3.631111 1.141206,-1.55619 3.527364,-1.55619 1.763682,0 2.801142,0.933714 1.03746,0.829968 1.763682,2.697396 L 63.387591,145.49426 H 59.75648 L 81.646887,82.83168 q 0.726222,-1.971175 1.763682,-2.904889 1.03746,-1.03746 2.801142,-1.03746 1.659936,0 2.59365,1.03746 1.03746,0.933714 1.763682,2.904889 l 21.579167,62.66258 h -3.21612 L 130.615,82.520441 q 0.51873,-1.763682 1.55619,-2.697396 1.14121,-0.933714 2.90489,-0.933714 2.17866,0 3.21612,1.452444 1.03746,1.452444 0.2075,3.734857 l -23.03162,65.463728 q -0.72622,1.97117 -1.86742,3.00863 -1.03746,0.93372 -3.00864,0.93372 -1.86743,0 -3.00863,-0.93372 -1.03746,-1.03746 -1.86743,-3.00863 L 84.863013,89.471424 h 2.282412 L 66.084987,149.54036 q -0.726222,1.97117 -1.763682,3.00863 -1.03746,0.93372 -3.008634,0.93372 z"
       style="font-family:Nunito;-inkscape-font-specification:Nunito"
       id="path2403" /><path
       d="m 167.54856,153.6902 q -7.98844,0 -13.79822,-3.11238 -5.70603,-3.21613 -8.92215,-9.0259 -3.11238,-5.80978 -3.11238,-13.90197 0,-7.88469 3.11238,-13.69447 3.11238,-5.91352 8.50717,-9.23339 5.49854,-3.31988 12.65701,-3.31988 5.08355,0 9.12965,1.76369 4.04609,1.65993 6.84723,4.87606 2.90489,3.21612 4.35734,7.78095 1.55619,4.56482 1.55619,10.27085 0,1.65994 -0.93372,2.48991 -0.93371,0.72622 -2.69739,0.72622 h -36.10361 v -5.49854 h 34.13243 l -1.65993,1.3487 q 0,-5.60229 -1.65994,-9.44089 -1.65994,-3.94235 -4.87606,-6.01727 -3.11238,-2.07492 -7.8847,-2.07492 -5.29104,0 -9.0259,2.48991 -3.63111,2.38616 -5.49854,6.74349 -1.86743,4.25358 -1.86743,9.95961 v 0.62248 q 0,9.54463 4.56483,14.52444 4.66857,4.97981 13.17574,4.97981 3.52736,0 6.95098,-0.93372 3.52737,-0.93371 6.84724,-3.11238 1.45244,-0.93371 2.59365,-0.82996 1.24495,0 1.97117,0.72622 0.72622,0.62247 0.93372,1.65993 0.31123,0.93372 -0.2075,2.07492 -0.41498,1.14121 -1.76368,1.97118 -3.42362,2.4899 -8.09219,3.8386 -4.66857,1.3487 -9.23339,1.3487 z"
       style="font-family:Nunito;-inkscape-font-specification:Nunito"
       id="path2405" /><path
       d="m 215.89415,153.6902 q -5.1873,0 -9.33714,-1.97118 -4.0461,-2.07492 -6.43225,-5.60228 -2.38616,-3.52736 -2.38616,-7.8847 0,-5.60228 2.80114,-8.81841 2.90489,-3.21612 9.44089,-4.56482 6.63974,-1.3487 18.0518,-1.3487 h 4.66857 v 5.49854 h -4.56482 q -8.40343,0 -13.27949,0.82997 -4.77232,0.72622 -6.74349,2.59365 -1.86743,1.86743 -1.86743,5.29104 0,4.25359 2.90489,6.95099 3.00863,2.69739 8.09219,2.69739 4.14984,0 7.26222,-1.97117 3.21612,-1.97118 4.97981,-5.39479 1.86742,-3.42362 1.86742,-7.8847 v -11.82704 q 0,-6.43226 -2.59365,-9.2334 -2.59365,-2.90489 -8.50717,-2.90489 -3.63111,0 -7.26222,0.93372 -3.63111,0.93371 -7.6772,3.00863 -1.45245,0.72622 -2.48991,0.51873 -1.03746,-0.31124 -1.65993,-1.1412 -0.62248,-0.82997 -0.72623,-1.86743 -0.10374,-1.14121 0.41499,-2.17867 0.62247,-1.03746 1.86743,-1.65993 4.56482,-2.28242 9.0259,-3.31988 4.46108,-1.03746 8.50717,-1.03746 6.536,0 10.78959,2.17867 4.25358,2.07492 6.3285,6.43225 2.07492,4.25359 2.07492,10.99708 v 28.11516 q 0,2.07492 -1.03746,3.21613 -0.93371,1.14121 -2.80114,1.14121 -1.97117,0 -3.00863,-1.14121 -1.03746,-1.14121 -1.03746,-3.21613 v -8.09218 h 0.93371 q -0.82997,3.94234 -3.21613,6.74349 -2.28241,2.80114 -5.70603,4.35733 -3.42362,1.55619 -7.6772,1.55619 z"
       style="font-family:Nunito;-inkscape-font-specification:Nunito"
       id="path2407" /><path
       d="m 275.23694,153.6902 q -5.91352,0 -9.95962,-2.07492 -3.94234,-2.17867 -5.91352,-6.22476 -1.97117,-4.14984 -1.97117,-10.06336 v -26.45523 h -6.95099 q -1.76368,0 -2.69739,-0.82997 -0.93372,-0.93372 -0.93372,-2.48991 0,-1.55619 0.93372,-2.38615 0.93371,-0.82997 2.69739,-0.82997 h 6.95099 V 90.405138 q 0,-2.07492 1.1412,-3.11238 1.14121,-1.141206 3.11238,-1.141206 1.97118,0 3.00864,1.141206 1.1412,1.03746 1.1412,3.11238 v 11.930792 h 13.072 q 1.76368,0 2.6974,0.82997 0.93371,0.82996 0.93371,2.38615 0,1.55619 -0.93371,2.48991 -0.93372,0.82997 -2.6974,0.82997 h -13.072 v 25.62526 q 0,5.91352 2.48991,9.0259 2.4899,3.00863 8.09219,3.00863 1.97117,0 3.31987,-0.41498 1.45244,-0.41498 2.38616,-0.41498 0.93371,-0.10375 1.55619,0.62247 0.62247,0.72622 0.62247,2.48991 0,1.24495 -0.51873,2.28241 -0.41498,1.03746 -1.55619,1.45244 -1.24495,0.41499 -3.31987,0.72622 -1.97117,0.41499 -3.63111,0.41499 z"
       style="font-family:Nunito;-inkscape-font-specification:Nunito"
       id="path2409" /><path
       d="m 296.08998,153.48271 q -2.07492,0 -3.11238,-1.14121 -1.03746,-1.14121 -1.03746,-3.21613 V 83.142918 q 0,-2.074921 1.03746,-3.112381 1.03746,-1.141206 3.11238,-1.141206 1.97117,0 3.11238,1.141206 1.14121,1.03746 1.14121,3.112381 V 113.5405 h -1.3487 q 2.17866,-6.01727 7.05473,-9.02591 4.9798,-3.11238 11.41206,-3.11238 6.01726,0 9.95961,2.17867 4.0461,2.17867 6.01727,6.63974 1.97117,4.35734 1.97117,11.10083 v 27.80392 q 0,2.07492 -1.1412,3.21613 -1.03746,1.14121 -3.00864,1.14121 -2.07492,0 -3.21612,-1.14121 -1.03746,-1.14121 -1.03746,-3.21613 v -27.28519 q 0,-7.05473 -2.80114,-10.27086 -2.6974,-3.31987 -8.71467,-3.31987 -6.95098,0 -11.10082,4.35733 -4.04609,4.25359 -4.04609,11.41206 v 25.10653 q 0,4.35734 -4.25359,4.35734 z"
       style="font-family:Nunito;-inkscape-font-specification:Nunito"
       id="path2411" /><path
       d="m 373.58831,153.6902 q -7.98844,0 -13.79822,-3.11238 -5.70603,-3.21613 -8.92216,-9.0259 -3.11238,-5.80978 -3.11238,-13.90197 0,-7.88469 3.11238,-13.69447 3.11238,-5.91352 8.50718,-9.23339 5.49853,-3.31988 12.65701,-3.31988 5.08355,0 9.12965,1.76369 4.04609,1.65993 6.84723,4.87606 2.90489,3.21612 4.35734,7.78095 1.55619,4.56482 1.55619,10.27085 0,1.65994 -0.93372,2.48991 -0.93371,0.72622 -2.69739,0.72622 h -36.10361 v -5.49854 h 34.13243 l -1.65993,1.3487 q 0,-5.60229 -1.65994,-9.44089 -1.65994,-3.94235 -4.87606,-6.01727 -3.11238,-2.07492 -7.8847,-2.07492 -5.29105,0 -9.0259,2.48991 -3.63111,2.38616 -5.49854,6.74349 -1.86743,4.25358 -1.86743,9.95961 v 0.62248 q 0,9.54463 4.56483,14.52444 4.66857,4.97981 13.17574,4.97981 3.52736,0 6.95098,-0.93372 3.52737,-0.93371 6.84724,-3.11238 1.45244,-0.93371 2.59365,-0.82996 1.24495,0 1.97117,0.72622 0.72622,0.62247 0.93372,1.65993 0.31123,0.93372 -0.2075,2.07492 -0.41498,1.14121 -1.76368,1.97118 -3.42362,2.4899 -8.09219,3.8386 -4.66857,1.3487 -9.23339,1.3487 z"
       style="font-family:Nunito;-inkscape-font-specification:Nunito"
       id="path2413" /><path
       d="m 410.31436,153.48271 q -2.07492,0 -3.21613,-1.14121 -1.03746,-1.14121 -1.03746,-3.21613 v -43.26208 q 0,-2.07492 1.03746,-3.11238 1.03747,-1.1412 3.00864,-1.1412 1.97117,0 3.00863,1.1412 1.14121,1.03746 1.14121,3.11238 v 8.40343 h -1.03746 q 1.65994,-6.12102 6.32851,-9.44089 4.66857,-3.31987 11.5158,-3.52736 1.55619,-0.10375 2.48991,0.72622 0.93371,0.72622 1.03746,2.59365 0.10374,1.76368 -0.82997,2.80114 -0.93372,1.03746 -2.90489,1.24495 l -1.65994,0.2075 q -7.05472,0.62247 -10.89333,4.56482 -3.73485,3.8386 -3.73485,10.58209 v 25.10653 q 0,2.07492 -1.14121,3.21613 -1.03746,1.14121 -3.11238,1.14121 z"
       style="font-family:Nunito;-inkscape-font-specification:Nunito"
       id="path2415" /><path
       d="m 485.84138,153.6902 q -5.1873,0 -9.33714,-1.97118 -4.04609,-2.07492 -6.43225,-5.60228 -2.38616,-3.52736 -2.38616,-7.8847 0,-5.60228 2.80115,-8.81841 2.90488,-3.21612 9.44088,-4.56482 6.63975,-1.3487 18.05181,-1.3487 h 4.66857 v 5.49854 h -4.56483 q -8.40342,0 -13.27949,0.82997 -4.77231,0.72622 -6.74349,2.59365 -1.86742,1.86743 -1.86742,5.29104 0,4.25359 2.90488,6.95099 3.00864,2.69739 8.09219,2.69739 4.14984,0 7.26222,-1.97117 3.21613,-1.97118 4.97981,-5.39479 1.86743,-3.42362 1.86743,-7.8847 v -11.82704 q 0,-6.43226 -2.59365,-9.2334 -2.59365,-2.90489 -8.50717,-2.90489 -3.63111,0 -7.26222,0.93372 -3.63111,0.93371 -7.67721,3.00863 -1.45244,0.72622 -2.4899,0.51873 -1.03746,-0.31124 -1.65994,-1.1412 -0.62247,-0.82997 -0.72622,-1.86743 -0.10375,-1.14121 0.41498,-2.17867 0.62248,-1.03746 1.86743,-1.65993 4.56483,-2.28242 9.0259,-3.31988 4.46108,-1.03746 8.50718,-1.03746 6.53599,0 10.78958,2.17867 4.25359,2.07492 6.32851,6.43225 2.07492,4.25359 2.07492,10.99708 v 28.11516 q 0,2.07492 -1.03746,3.21613 -0.93372,1.14121 -2.80115,1.14121 -1.97117,0 -3.00863,-1.14121 -1.03746,-1.14121 -1.03746,-3.21613 v -8.09218 h 0.93371 q -0.82996,3.94234 -3.21612,6.74349 -2.28241,2.80114 -5.70603,4.35733 -3.42362,1.55619 -7.67721,1.55619 z"
       style="font-family:Nunito;-inkscape-font-specification:Nunito;fill:#000000"
       id="path2417" /><path
       d="m 529.10353,172.15699 q -2.07492,0 -3.11238,-1.14121 -1.03746,-1.03746 -1.03746,-3.11238 v -62.04011 q 0,-2.07492 1.03746,-3.11238 1.03746,-1.1412 3.00863,-1.1412 2.07492,0 3.11238,1.1412 1.14121,1.03746 1.14121,3.11238 v 9.85587 l -1.14121,-1.45244 q 1.65994,-5.91352 6.536,-9.33714 4.97981,-3.52737 11.82705,-3.52737 6.74349,0 11.72329,3.21613 5.08356,3.11238 7.78095,9.0259 2.80115,5.80978 2.80115,13.90197 0,7.98844 -2.80115,13.90196 -2.69739,5.80978 -7.6772,9.0259 -4.97981,3.21613 -11.82704,3.21613 -6.84724,0 -11.7233,-3.42362 -4.87607,-3.52736 -6.63975,-9.33714 h 1.24495 v 26.97396 q 0,2.07492 -1.1412,3.11238 -1.14121,1.14121 -3.11238,1.14121 z m 19.60799,-25.21028 q 4.77232,0 8.19594,-2.28241 3.52736,-2.28242 5.39479,-6.63975 1.97117,-4.35733 1.97117,-10.47834 0,-9.44089 -4.25358,-14.4207 -4.14984,-4.97981 -11.30832,-4.97981 -4.66857,0 -8.19593,2.28242 -3.52736,2.17866 -5.49854,6.53599 -1.86743,4.25359 -1.86743,10.5821 0,9.33714 4.25359,14.42069 4.25359,4.97981 11.30831,4.97981 z"
       style="font-family:Nunito;-inkscape-font-specification:Nunito;fill:#000000"
       id="path2419" /><path
       d="m 589.58748,172.15699 q -2.07492,0 -3.11238,-1.14121 -1.03746,-1.03746 -1.03746,-3.11238 v -62.04011 q 0,-2.07492 1.03746,-3.11238 1.03746,-1.1412 3.00863,-1.1412 2.07492,0 3.11238,1.1412 1.14121,1.03746 1.14121,3.11238 v 9.85587 l -1.14121,-1.45244 q 1.65994,-5.91352 6.536,-9.33714 4.97981,-3.52737 11.82704,-3.52737 6.74349,0 11.7233,3.21613 5.08356,3.11238 7.78095,9.0259 2.80114,5.80978 2.80114,13.90197 0,7.98844 -2.80114,13.90196 -2.69739,5.80978 -7.6772,9.0259 -4.97981,3.21613 -11.82705,3.21613 -6.84723,0 -11.7233,-3.42362 -4.87606,-3.52736 -6.63974,-9.33714 h 1.24495 v 26.97396 q 0,2.07492 -1.1412,3.11238 -1.14121,1.14121 -3.11238,1.14121 z m 19.60799,-25.21028 q 4.77232,0 8.19594,-2.28241 3.52736,-2.28242 5.39479,-6.63975 1.97117,-4.35733 1.97117,-10.47834 0,-9.44089 -4.25358,-14.4207 -4.14984,-4.97981 -11.30832,-4.97981 -4.66857,0 -8.19593,2.28242 -3.52737,2.17866 -5.49854,6.53599 -1.86743,4.25359 -1.86743,10.5821 0,9.33714 4.25359,14.42069 4.25358,4.97981 11.30831,4.97981 z"
       style="font-family:Nunito;-inkscape-font-specification:Nunito;fill:#000000"
       id="path2421" /></g><g
     id="g1965"
     transform="matrix(0.77716026,0,0,0.77716026,-9.8328701,4.2837597)"><ellipse
       style="fill:#fa4a25;fill-opacity:1;stroke-width:7.91684"
       id="path234"
       cx="132.07845"
       cy="129.94112"
       rx="116.02421"
       ry="119.40194" /><path
       d="m 210.00872,117.26357 -0.026,-0.0893 0.026,0.0855 v 0.004 m -110.681889,65.75712 -0.1,-0.23242 0.0408,0.10642 0.0592,0.126 m 0.20395,0.4575 -0.0884,-0.18472 0.0291,0.0954 c -0.13247,-0.30582 -0.14167,-0.30948 -0.29554,-0.38657 -0.0588,0.16393 -0.0588,0.16393 -0.0961,2.10894 v 0 c -0.20481,-0.33395 -0.24072,-0.4159 -0.35196,-0.78045 -0.518,1.26365 -0.53504,1.88139 -0.14168,5.0925 0.4888,3.98787 -0.27043,11.77279 -2.59403,11.93915 -0.81169,0.0588 -2.41134,-1.08871 -2.97348,-2.94931 -0.52918,-1.7554 -1.21374,-10.85534 -1.21088,-10.91405 0.0729,-1.23307 1.30361,-1.57925 1.90514,-2.40742 0.18195,-0.25076 0.24558,-0.56269 0.43201,-0.81102 0.0927,-0.12477 0.2457,-0.2679 0.35581,-0.37799 0.92193,-0.93092 1.03702,-2.26062 1.69733,-3.32121 0.39374,-0.63241 0.55046,-1.40064 1.12389,-1.93276 0.71165,-0.19694 1.26906,1.43858 1.6117,2.84656 0.26559,1.09484 0.35644,1.46548 0.59766,1.98293 m 49.273509,-44.84404 0.0349,0.0588 c -0.0721,-0.1896 -0.14789,-0.37798 -0.22495,-0.56516 l 0.0212,0.19573 0.16902,0.31072 m 72.08666,14.45543 c -0.0894,0.126 -0.17897,0.25321 -0.27341,0.37554 0.0769,-0.56393 0.0101,-1.13642 0.0969,-1.69912 0.0721,-0.45995 0.0721,-0.45995 0.26845,-0.65445 l -0.1218,0.0697 c -0.38156,0.29969 -0.79666,0.84528 -0.98805,2.63861 l -0.056,-0.10766 c -0.0759,0.23487 0.0297,2.15786 0.10814,2.58722 0.16157,0.88566 0.37658,0.92358 0.52449,0.87465 -0.53691,-2.22391 0.93833,-2.17743 0.95323,-2.1762 -0.19388,-0.81959 -0.17897,-1.21962 0.30325,-2.67408 -0.28956,-0.0845 -0.85506,0.57005 -0.81529,0.76577 m -10.90842,-35.9017 v -0.0135 l -0.002,-0.002 0.002,0.0147 m 5.51445,13.6542 0.0336,0.011 0.0102,-0.0819 -0.0435,0.071 m -0.087,0.0343 c 0.3194,-0.6777 0.48096,-1.08138 0.4847,-1.39577 l -0.009,-0.0612 c 0.41635,0.36332 0.81032,1.07037 0.75688,1.71871 -0.0137,0.17492 -0.0571,0.29358 -0.0858,0.37187 -0.33929,-0.74987 -0.71711,-0.84774 -1.26272,-0.32784 v -0.0122 l -0.0102,0.0355 0.0224,-0.17248 c 0.009,-0.21408 0.0287,-0.23488 0.0447,-0.25201 l 0.0583,0.0954 m -0.72085,5.63195 c 0.26597,0.0183 0.82399,-0.8832 1.06386,-1.37006 0,-9.5e-4 0.13547,-0.76088 0.16406,-1.12909 0.0969,-1.19636 -0.45861,-1.08627 -0.46482,-1.08505 -0.57296,0.43672 -1.23537,3.55239 -0.7631,3.5842 m 4.43193,4.90777 c 0.0622,1.16578 0.10192,1.20004 0.3194,1.38599 0.0907,-0.31561 0.19514,-0.74499 0.23987,-1.07159 0.006,-0.0429 0.59159,-4.38422 -0.95201,-6.21669 l 0.0212,-0.0379 c 0.16406,-0.0857 0.16406,-0.0857 0.0994,-1.38474 -0.10193,0.25934 -0.21626,0.51499 -0.30575,0.78045 l 0.0708,0.3572 c -0.51825,-0.33885 -0.51825,-0.33885 -0.64751,-2.72424 1.07257,0.4416 0.74569,-1.17924 0.43375,-1.89852 -0.41262,-0.95659 -0.53442,-0.9407 -1.49388,-0.82082 -0.7221,-2.45267 -0.7221,-2.45267 -1.03404,-2.49426 -0.16903,0.12723 -0.16903,0.12723 -0.24732,0.4465 -0.18145,-1.13765 -1.49512,-1.13521 -1.76482,-0.90645 -0.11062,0.093 -0.15163,0.30582 -0.17151,0.44772 -0.0808,-0.41592 -0.10813,-0.70461 -0.1218,-1.28932 l 0.0174,0.0122 c 0.0349,-0.21284 0.041,-0.31315 0.0336,-0.53457 l -0.0286,-0.20427 c -0.0933,-2.0074 0.55182,-4.0466 -0.25976,-6.02465 -0.60276,-1.46914 -2.65593,-0.50153 -3.2997,-1.90219 l -0.041,-0.0697 0.0659,0.16148 c 0.23987,1.73704 -0.50707,3.53526 0.33433,5.23561 -0.13173,-0.0331 -0.31444,0.0526 -0.43623,0.11253 -0.2697,1.01044 0.24732,2.94564 1.213,3.68206 0.34799,-0.19206 0.39647,-0.42203 0.16778,-0.81959 0.4934,0.31683 0.4934,0.31683 0.26971,2.00495 l -0.33806,0.0476 c -0.26224,0.66302 0.10066,1.06669 1.45287,2.5701 0.79541,-0.95415 -0.1479,-2.00617 -0.78174,-2.54808 0.28335,-0.0855 0.61768,-0.16269 1.33106,-0.0574 -0.14665,0.41225 0.0659,0.57494 0.26846,0.66913 0.14666,-0.0624 0.29827,-0.12966 0.12054,-0.57493 0.8414,0.28135 1.14963,1.14743 1.822,1.61227 -0.12926,-0.64222 -0.45363,-0.87463 -0.54933,-0.93091 0.0186,-0.25567 0.0759,-1.03245 0.88863,-0.18839 0.48345,0.504 0.90104,1.28443 1.03776,1.54256 l -0.11932,0.011 c -0.1106,0.68136 -0.1106,0.68136 0.99924,2.24103 -0.23489,0.19451 -0.39273,0.24344 -0.58289,-0.01 l 0.13796,-0.0366 c 0.0212,-0.25811 0.0212,-0.25811 -0.12801,-0.515 -0.11062,0.10643 -0.1628,0.15414 -0.0633,0.4673 l -0.0733,-0.15291 c -0.215,0.56149 -0.2063,1.04345 0.0336,1.84715 l -0.0759,-0.0232 c 0.004,0.027 0.004,0.027 0.39025,0.71193 l 1.11979,1.96215 c -0.24235,0.7939 -0.24235,0.7939 -2.01339,2.72668 l 0.0759,-0.20919 c -0.25229,-0.4257 -1.71013,-0.34496 -1.991,0.62266 -0.17028,0.58961 -0.11933,1.22694 -0.39896,1.79208 0.57419,-0.71561 0.70593,-1.04834 0.77678,-1.22694 0.26223,0.3462 0.72705,0.23487 1.14339,0.12355 0.46234,-0.12233 0.86502,-0.24587 0.86873,0.25445 0.005,0.6997 -0.4648,1.34805 -0.23612,2.07345 0.22247,0.7046 0.99923,0.92235 1.36213,1.50462 -0.009,-0.98595 0.81778,-1.64041 1.04026,-2.5334 m -4.96015,-0.18838 0.005,-0.008 -0.19512,0.21407 0.19015,-0.20673 m -4.16473,-23.99453 -0.006,-0.0233 -0.008,-0.022 0.003,0.022 0.0112,0.0233 m 6.78214,45.58166 c 0.37905,0.21653 1.01912,-0.0195 1.17696,-0.43549 l 0.0372,-0.22507 h -0.008 c -0.0547,-0.42694 -0.54809,-0.76945 -1.05764,-0.7352 -0.41013,0.093 -0.44245,0.39879 -0.45365,0.49909 -0.0199,0.18594 -0.0733,0.68138 0.30449,0.89667 m 11.8069,13.10861 c -2.76778,3.50958 -3.86146,8.04548 -7.12266,11.25291 -1.88414,1.85326 -2.35268,-1.89119 -2.35516,-1.93154 -0.0695,-1.12053 -0.0695,-1.12053 3.31463,-7.29806 -0.21251,0.21652 -0.21251,0.21652 -0.84513,0.81714 0.0102,-0.40613 0.26347,-0.74864 0.30077,-1.14865 -0.40641,0.88319 -0.40641,0.88319 -3.50478,-1.02021 -1.19934,2.26305 -1.19934,2.26305 -1.8046,2.41841 -1.30249,0.33885 -3.1021,1.79942 -3.88757,4.80502 -0.59904,-0.31193 -0.67858,-0.33028 -1.54359,-0.005 0.11557,-1.08626 -1.12103,-1.3823 -1.36463,-2.25816 -0.16529,0.19573 -3.35937,3.40805 -4.94521,4.03681 h -0.002 -0.002 -0.002 v 0 h -0.002 -0.002 v 0 h -0.003 c -0.0733,0.68749 -0.12429,0.86607 -0.45612,1.59392 l -0.0858,-0.24221 c -0.24981,0.23977 -0.24981,0.23977 -0.49464,0.79635 -0.005,-0.35352 -0.0102,-0.72051 0.26472,-1.8606 -0.78174,0.4783 -1.39943,0.8563 -3.02629,2.72791 -1.5846,1.82268 -2.11405,2.21291 -2.94304,2.66918 -1.40811,0.77433 -3.04491,0.91135 -4.49903,1.556 -1.83069,0.8086 -3.13939,2.58479 -5.30192,2.78051 -0.0186,-0.20917 0.0498,-0.50154 0.15535,-0.68503 -3.1257,1.57925 -4.05907,5.07781 -4.45679,6.57143 -0.20506,0.77067 -0.20506,0.77067 -0.46233,1.02754 0.0174,-0.15535 -0.005,-0.3682 -0.0497,-0.51744 -1.991,2.28264 -1.27514,5.56224 -3.01262,7.93783 -1.0651,1.45569 -2.81004,2.28386 -3.70239,3.8998 -0.0609,0.11011 -0.0311,0.29237 -0.0447,0.41714 0.91846,0.74131 3.50105,-0.26423 5.38768,-1.00064 0.12179,-0.0477 12.50286,-4.52244 14.77476,-2.86123 0.0398,0.41468 0.0398,0.41468 -2.18241,4.16402 1.67782,-1.13275 3.49856,-2.05388 5.06951,-3.34443 -1.02037,1.95357 -3.21396,2.42454 -4.78986,3.67471 0.65994,-0.0856 0.88862,-0.24833 2.67083,-1.51074 -0.0659,0.0845 -0.0659,0.0845 -2.09169,1.80678 l 0.0311,-0.0232 0.24981,0.0906 c -0.50832,1.52664 -2.53288,1.98415 -2.72304,3.7371 0.24609,0.20183 0.24609,0.20183 3.35067,-0.76943 -0.39646,0.37065 -0.39646,0.37065 -0.78423,0.53946 l 0.28834,0.0109 c -0.12304,0.34131 -0.12304,0.34131 -0.61147,0.89299 13.14542,-6.06131 21.06722,-14.75269 23.8611,-18.20843 -0.14417,0.16515 -0.33556,0.38777 -0.47601,0.55536 0.27716,-0.33151 0.55307,-0.66303 0.82896,-0.99697 l -0.1802,0.21407 0.0883,-0.11131 0.0522,-0.0599 0.24608,-0.2997 -0.16778,0.20305 c 0.34178,-0.45627 1.38078,-1.84714 2.05937,-3.61845 0.58785,-1.53397 1.31989,-3.01047 1.8481,-4.56647 0.46604,-1.3664 0.12304,-2.88082 0.80161,-4.20685 2.70066,-5.29189 2.70066,-5.29189 2.77524,-7.15371 0.13298,-3.29672 0.76807,-4.26922 1.57218,-5.49862 l 0.008,-0.009 -0.0286,-0.011 -0.0461,0.0196 m -4.75631,-15.10379 0.0509,-0.0343 h -0.002 l -0.0497,0.0343 m -38.34505,5.82402 c -0.12429,-0.32173 -0.12429,-0.32173 -0.15909,-0.45263 l -0.009,-0.011 h 0.0186 c 0.41883,-0.20184 0.92218,-0.0403 1.32734,-0.29725 0.43251,-0.27524 0.96692,-0.78779 1.13596,-1.26609 0.65496,-1.85816 0.0547,-3.67472 -0.26722,-4.64967 1.19313,2.00006 1.47649,2.4759 2.63729,1.84347 -0.40889,-0.40368 -0.12677,-0.80369 0.041,-0.86485 l 0.24982,0.0649 -0.20382,-0.2006 0.0684,-0.0122 -0.10315,-0.0856 h -0.009 l -0.009,-0.011 c -2.2371,-2.12117 -2.2371,-2.12117 -3.07352,-1.55845 -0.70593,-1.25387 -1.63929,-2.38173 -2.16376,-3.73589 -0.30326,-0.78168 -0.12677,-1.65999 -0.51703,-2.42331 -0.27963,-0.54925 -0.56797,-0.6459 -1.14339,-0.83672 -0.17152,0.29237 -0.18643,0.35719 -0.15536,0.62142 -0.28833,-0.36821 -0.48222,-0.55048 -0.83021,-0.77678 0.23614,0.0954 0.23614,0.0954 0.41634,0.0551 0.22993,-0.80979 -0.94579,-1.75907 -0.95698,-1.76885 -0.94082,-0.74986 -2.11032,-1.14621 -3.04244,-1.90708 -1.18815,-0.96884 -1.96244,-2.34258 -3.24379,-3.21844 -0.43749,-0.29849 -1.34474,-0.91991 -2.53538,-0.90645 l -0.31816,0.0208 c 1.80832,0.35597 4.61837,6.07723 8.27973,14.55819 2.51797,5.83013 3.66761,8.38433 4.56492,7.81917 m 45.86542,-7.90357 c -2.1675,0.0355 -2.37382,2.76459 -4.34867,3.06674 -0.80162,0.12233 -0.34177,-2.32668 -0.33681,-2.35235 l -0.0472,0.11131 c 0.25726,-2.26917 0.37409,-3.30528 -1.16827,-3.1536 -0.66987,0.17982 -1.27016,0.48565 -2.02332,1.39208 0.12305,-0.7095 -0.12055,-0.86974 -0.22495,-0.93947 -0.13299,0.049 -0.18767,0.071 -0.35296,0.33884 0.91969,1.55235 1.7151,2.89428 3.1978,2.48204 -0.54808,0.69726 -1.49512,0.63609 -2.16501,1.09972 l 0.0101,-0.005 c 0.96816,0.8147 -0.24856,1.8349 0.261,2.69242 0.19139,0.0172 0.32935,0.0293 1.05888,-1.39331 -0.0721,0.64589 -0.11061,1.00187 0.22496,1.47527 0.38403,0.53947 1.09245,0.59941 1.5523,1.02511 0.72082,0.66668 0.72331,0.75231 0.8911,5.26008 -0.10191,-0.23365 -0.4064,-0.94437 -1.89284,1.88506 0.76311,-0.33395 1.62563,-0.30703 2.38874,-0.64098 -0.77927,2.18354 0.84015,2.08813 0.97561,2.0184 0.15784,-0.0808 1.53366,-1.14009 1.30622,-1.65754 l -0.10564,-0.0195 h -0.003 c 0.73451,-0.35841 0.73451,-0.35841 0.89235,-0.50643 l -0.009,-0.13455 0.041,0.10397 c 0.17522,-0.21897 0.29082,-0.36454 0.47102,-0.88199 0.18642,0.67403 0.91597,1.01044 1.08748,1.69425 0.27094,1.08994 -0.32314,2.21901 0.15784,3.29916 0.58538,1.31748 1.26892,0.67648 1.27514,0.66913 0.24236,-0.25933 0.2784,-0.78045 0.33432,-1.12907 0.20508,-1.28691 -0.39521,-2.53096 -0.21624,-3.8154 0.18393,-1.32848 1.0912,-2.42208 1.26768,-3.75302 0.0498,-0.37921 0.008,-0.89788 -0.0622,-1.27464 -0.0124,-0.0697 -1.92016,-6.99835 -4.43814,-6.95678 m -84.40914,-22.64772 c -0.22992,-0.2789 -0.35918,-0.12966 -0.36041,-0.12721 0,9.5e-4 -0.0597,0.15536 0.14168,0.16147 0.0212,0 0.0845,-0.002 0.20382,-0.0306 l 0.015,-0.004 m 1.70269,2.23248 c 0.11309,2.18355 0.0336,3.77749 -0.23614,4.73897 -0.65,2.31076 -2.12277,0.19205 -2.13767,0.16759 -0.63385,-1.08872 -0.34925,-2.3756 -0.0199,-3.86678 0.34676,-1.56946 0.51826,-2.58355 -0.0236,-3.43373 -0.0871,-0.011 -0.29082,-0.0649 -0.33556,-0.33763 l 0.13173,0.0808 -0.0658,-0.0808 c 0.10936,-0.0832 0.18643,-0.11131 0.34052,-0.12598 0.1591,-0.005 1.00422,0.0331 2.01464,1.26241 0.26224,0.31927 0.64752,0.92602 0.28336,1.40065 -0.0174,0.0232 -0.0311,0.0403 0.0485,0.1945 m 91.85511,25.72057 -0.0274,0.0135 c 0.54562,-1.85816 0.40516,-3.66738 -0.0957,-3.61111 -0.12057,0.0392 -0.20136,0.11377 -0.34926,0.31928 0.0237,0.10398 0.0311,0.18961 0.0435,0.43181 l -0.0634,-0.0392 -0.14043,0.22632 c 0.0609,-9.6e-4 0.0609,-9.6e-4 0.18146,-0.10153 0.0658,0.56759 -0.0733,2.35236 -0.0759,2.35971 l -0.25226,0.28851 c -0.31693,0.49666 -0.52945,1.05569 -0.90354,1.52053 -0.22371,0.27524 -0.34675,0.241 -0.43997,0.17249 -0.3716,-0.28257 -0.55802,-0.42325 -1.13096,0.13211 -0.0945,0.0905 -0.0945,0.0905 -0.31693,1.26855 0.0671,0.0366 1.70641,0.85383 3.02007,-2.91386 -0.0199,0.57128 -0.008,0.75355 0.0583,0.85141 l 0.0461,-0.01 -0.006,0.0318 c 0.21749,-0.22142 0.27467,-0.35598 0.36414,-0.59573 l 0.0832,-0.21286 0.015,-0.0845 -0.0397,0.0306 0.0298,-0.0771 m -53.70022,-11.29817 -0.0112,0.003 0.005,-9.5e-4 0.006,-9.5e-4 m -37.88835,-14.86018 c -0.0634,0.0135 -0.13794,0.0771 -0.28833,0.24221 0.14665,0.3205 0.19016,0.3523 0.20009,0.3205 l -0.015,-0.14801 0.0547,-0.0232 0.0336,-0.0343 0.092,-0.22263 -0.0769,-0.13457 M 80.381501,74.342714 c 1.95646,0.171259 3.01822,-1.059353 3.29784,-1.439789 1.0292,-1.407997 -0.95399,-3.816626 -3.46686,-5.333486 -0.92194,-0.556585 -1.84486,-0.300922 -2.76766,-0.04644 -0.87148,0.240987 -1.74245,0.481974 -2.61293,0.04037 -0.0966,-0.380435 -0.0966,-0.380435 1.50507,-1.754171 -1.32199,-0.708278 -2.21236,-1.096056 -3.42947,-0.505209 l -0.16268,-0.183502 0.0919,0.155358 0.0445,0.03667 c -1.14427,0.604297 -1.89731,1.902197 -2.76966,3.404381 -1.009791,1.741936 -1.391462,2.050202 -2.316261,2.797624 0.361668,0.259338 0.49714,0.355976 0.789956,0.928462 0.247063,0.481975 0.619919,1.209829 1.021844,1.30034 1.119541,0.250771 2.067201,-0.220185 3.014351,-0.691142 0.94567,-0.470965 1.89098,-0.940696 3.00704,-0.693601 1.70504,0.380445 2.95122,1.827575 4.75296,1.984158 m -2.66488,-8.892004 c -0.44419,0.75843 0.44817,0.908895 2.83528,1.310124 0.2063,-0.535784 0.55242,-1.431231 1.19758,-1.191469 -0.0116,-0.291139 -0.014,-0.336399 -0.33694,-0.497875 -0.29753,-0.148016 -0.31405,-0.195717 -0.30137,-0.508874 0.55393,0.07827 1.10736,-0.0795 1.68937,-0.483191 l 0.2078,-0.154143 c -1.17534,-0.605522 -3.34295,0.143125 -4.87761,1.195145 l 0.11509,-0.121107 c -0.003,0.0028 -0.32476,0.229979 -0.4734,0.386553 l 0.1622,-0.137007 -0.16505,0.146799 -0.0194,0.0085 -0.0456,0.03667 0.0121,0.0098 m 13.7411,3.726095 c 0.32575,0.14435 0.32575,0.14435 0.73638,-0.01472 -1.09854,1.661199 -0.86749,2.429421 1.23798,4.111422 1.3215,1.055688 1.63122,1.431231 1.74879,2.113825 -1.48071,-0.222646 -2.18813,2.412296 -2.07788,3.302841 0.17573,1.428779 1.46952,2.115039 2.5089,2.667959 0.30499,0.161475 0.31567,0.207961 0.34427,0.322949 h 0.0379 l -0.0161,0.04037 c 0.8568,0.507658 1.63071,0.21651 2.40499,-0.0759 0.55055,-0.206736 1.10113,-0.413472 1.681779,-0.332735 l 0.0286,0.0048 c -0.067,-5.121897 -0.107759,-8.21311 -2.337619,-10.364852 -1.56559,-1.509516 -1.62001,-1.860602 -1.70837,-2.439206 0.18691,-0.236095 0.61071,-0.384111 0.90937,-0.44038 -0.37186,-0.811032 -0.37186,-0.811032 2.13218,-1.312575 -0.38986,-0.299707 -0.45634,-0.382886 -0.26558,-1.226945 0.13496,-0.594513 0.33742,-1.491175 -1.53938,-1.57802 -2.05165,-0.09543 -2.78232,2.143174 -4.57324,2.507709 -0.24805,-0.01225 -0.40154,-0.09176 -0.56611,-0.294816 -0.0165,1.04957 -0.91993,1.903421 -0.6869,3.008045 M 172.77443,121.8031 c -0.0721,-0.11133 -0.16903,-0.26057 -0.23986,-0.3731 -2.04321,1.30034 -2.04321,1.30034 -2.62114,0.55413 -0.81404,-1.04956 -1.03527,-2.65082 -1.1434,-3.4215 -0.4586,-3.29795 -3.21021,-5.23806 -4.80477,-7.86201 -0.18768,-0.30947 -0.41637,-0.73396 -0.60651,-1.04099 -0.18644,-0.30092 -0.48098,-0.67403 -0.68852,-0.96149 -0.28462,0.0281 -0.66617,0.0574 -0.95202,0.0735 -0.17896,1.3664 -0.17896,1.3664 -0.73203,1.98905 -0.16404,-0.2251 -0.35171,-0.54682 -0.47723,-0.79514 -0.13548,0.2153 -0.37411,0.47462 -0.59035,0.61653 -0.26223,-0.0782 -0.63261,-0.126 -0.90603,-0.10643 -0.092,0.115 -0.21376,0.26791 -0.30573,0.38413 l -0.302,-0.30216 -0.36044,0.22754 c -0.1827,-0.18474 -0.32438,-0.52968 -0.35171,-0.78535 -2.14762,4.87477 -7.84598,6.78674 -10.02218,11.63824 -2.09914,4.68026 -0.696,10.07001 -3.06359,14.69764 -0.35172,0.68505 -0.80659,1.70893 -1.47523,2.10403 -2.72428,1.6123 -15.10164,-20.36995 -11.23395,-27.67291 -0.12304,-0.0856 -0.28709,-0.20063 -0.41137,-0.28627 -0.0274,-0.25688 -0.10316,-0.59695 -0.19513,-0.83793 -0.12802,-0.0355 -0.29828,-0.0808 -0.42629,-0.11621 0.0747,0.1578 0.2063,0.35719 0.24856,0.52601 0.34675,1.34806 -1.47399,2.73158 -2.54779,2.57255 -1.98109,-0.29236 -1.62191,-2.59947 -3.02009,-3.39338 1.38079,-0.15413 1.5523,-0.56515 1.7176,-0.96272 -1.1956,0.0612 -2.20602,-0.13823 -3.83165,-1.33949 -2.47323,-2.05756 -2.81253,-3.31877 -2.92438,-3.73469 -2.14638,-1.13032 -4.43441,-0.82205 -6.72371,-0.51378 -2.47572,0.33274 -4.95293,0.66669 -7.2498,-0.82327 -0.43449,-0.28134 -1.00098,-0.67892 -1.44864,-0.9407 -1.08499,-0.63366 -2.26568,-0.57371 -3.44588,-0.515 -1.08127,0.0538 -2.162419,0.10886 -3.169699,-0.36942 -2.65804,-1.258757 -2.39977,-5.039899 -5.37673,-6.02219 -0.17475,-0.05747 -0.42817,-0.04037 -0.61123,-0.05871 -0.006,0.0076 -0.64664,0.752312 -1.69671,1.444689 h 0.005 0.005 c 1.04523,0.251988 1.19858,0.486867 1.6419,2.512592 l 3.17256,6.695019 c 1.73362,1.90098 8.097779,1.73338 8.395439,-3.38361 1.20791,1.26733 0.22333,3.11449 1.2151,4.43929 0.9929,1.32604 3.04495,1.00555 3.95333,2.46369 0.28199,0.45383 0.3291,1.23919 0.22333,1.7603 -0.34612,1.70157 -2.77796,6.30356 -9.503299,11.54039 -0.1321,0.10154 -13.20119,10.21924 -16.09512,7.48277 l -10.82553,-27.95065 c -0.12279,-0.31804 -0.29019,-0.74252 -0.40144,-1.066689 -0.70195,-2.042868 -0.5369,-3.242895 -0.34463,-4.632526 -1.33567,1.757833 -1.3113,2.364581 -1.26233,3.573177 -1.307831,-1.763966 -1.73065,-2.767045 -1.886001,-4.472289 -1.342387,2.283852 -1.471016,3.991549 1.206781,8.665687 2.01874,3.52184 2.01874,3.52184 5.04949,14.23653 1.28994,4.56159 2.66004,6.99958 4.88744,8.69626 1.04908,0.80002 3.00269,2.28876 3.42798,3.29061 0.55479,1.30401 -0.0384,1.77008 -1.11519,2.61414 5.51753,2.04653 5.51753,2.04653 6.89435,1.64163 7.18704,-2.11626 7.18704,-2.11626 7.25589,-1.74072 0.0568,0.30827 1.25935,7.71398 -10.15181,21.80854 -11.29621,13.95146 -2.92066,21.72292 -2.82557,21.78775 -0.0189,0.17004 -0.0436,0.39635 -0.0625,0.56515 0.19177,2.72547 1.99673,5.0191 2.14574,7.75556 0.18693,3.42885 -3.7649,4.04538 -4.70523,6.70845 -1.21424,3.43128 3.09303,5.47171 2.29005,8.80146 -0.30004,1.24162 -1.34624,2.00374 -1.9075,2.41352 1.66564,1.55356 3.23906,3.02149 1.15297,8.46017 -2.02096,5.26987 -6.70011,3.94751 -6.74471,3.92793 -0.91324,-0.4 -11.773961,-11.76913 -12.235548,-12.25354 -3.398894,-3.56095 -10.501915,-14.13861 -10.539329,-14.20956 -1.91868,-3.63925 -1.410365,-7.8999 -3.073638,-11.60399 l -0.17226,-0.33518 c -0.04275,-0.0697 -4.269368,-7.03383 -3.401384,-8.75375 -2.76082,-1.33704 -8.300237,-7.97942 -6.166546,-11.70307 -2.382758,-2.54074 0.111731,-6.63748 -2.949727,-8.9617 -0.117455,0.11132 -0.274294,0.26054 -0.392241,0.37309 -0.156355,-0.0526 -0.363153,-0.12355 -0.519007,-0.17615 -0.18742,0.22753 -0.571457,0.44161 -0.866624,0.48319 -4.260547,-4.20439 -4.260547,-4.20439 -5.465475,-3.32363 -5.714157,4.17504 -6.415238,2.56399 -7.576912,-0.10521 -0.02674,-0.0612 -2.740073,-7.7421 -3.456188,-18.45799 -0.293181,-4.37321 1.495741,-8.53235 1.360278,-12.88965 -0.02471,0.16147 -0.05714,0.37553 -0.08155,0.53702 0.653978,-9.20519 10.697537,-25.365889 10.797583,-25.510229 1.541359,-2.205569 2.24244,-3.052079 2.676939,-3.233122 0.615077,-0.256887 1.030179,0.276465 1.555527,0.380435 0.476246,0.09422 0.669013,0.02327 2.562341,-1.258746 1.725912,-1.16945 2.397793,-1.515633 3.424612,-1.770081 0.437356,-0.108872 0.437356,-0.108872 4.895515,-0.429361 0.997743,-0.02688 1.657434,-0.04531 0.719966,2.014725 -0.65198,1.434906 -1.79141,2.653284 -1.979322,4.29615 0.436477,3.00436 7.721079,8.658335 9.078,4.345069 0.627257,-1.995168 1.392464,-2.419639 1.923524,-2.42453 0.228193,-0.0028 0.535539,-0.02811 0.758753,0.01225 2.200306,0.407354 3.528025,2.422089 5.652018,2.971333 1.055906,0.272788 2.041972,-0.03058 3.027411,-0.33395 0.946791,-0.292365 1.892962,-0.583505 2.901765,-0.364535 0.146159,0.308265 0.391737,0.696043 0.610727,0.959039 3.038092,-0.363311 4.356242,-3.025151 5.414632,-5.16466 2.02496,-4.290023 1.32238,-5.168335 1.05877,-5.335926 -0.003,-0.0019 -4.96747,0.138231 -6.033064,0.204284 -2.124005,0.132115 -3.338128,-0.265447 -3.737201,-0.396336 0.06852,-0.124773 0.1612,-0.29359 0.230548,-0.419588 -0.310212,-0.09052 -0.744198,-0.144339 -1.067583,-0.148015 0.150006,-0.804917 0.05645,-1.651416 0.443811,-2.413522 -1.320018,-1.390862 0.55977,-2.652059 0.381045,-4.020903 -0.914103,-0.611639 -1.707394,-0.847724 -2.833275,-0.135781 -0.02759,0.324166 0.05144,0.774329 0.190402,1.069146 -0.299152,0.0085 -0.698225,0.05871 -0.988546,0.129664 -0.02519,0.148016 -0.05732,0.346184 -0.08251,0.495425 -0.13634,-0.331509 -0.36602,-0.755979 -0.57332,-1.049569 -0.356813,1.509517 0.793292,2.828208 0.562627,4.320609 -0.08926,-0.125998 -0.20867,-0.294816 -0.29753,-0.420813 -0.0038,0.271573 -0.151009,0.64589 -0.34477,0.841617 -0.221341,-0.167592 -0.617431,-0.286247 -0.894205,-0.251996 0.100049,0.13089 0.234022,0.305825 0.33457,0.436705 -0.230674,0.206735 -0.552572,0.468516 -0.799641,0.655684 -0.02519,0.353526 -0.06852,0.825708 -0.107255,1.179233 -0.133609,0.08444 -0.309342,0.196944 -0.443319,0.280132 -1.962801,-1.289341 -0.773285,-2.784173 -0.383042,-3.275931 -0.319902,-0.02081 -0.986937,-0.06601 -1.168509,-0.99086 -0.216997,-1.100938 0.146658,-2.815974 0.150509,-2.831875 0.400934,-1.793325 -0.879682,-3.206203 -1.132222,-4.850286 -0.06698,-0.428147 -0.370855,-0.955373 -0.414976,-1.387195 -0.03986,-0.385327 0.119432,-0.928463 0.338795,-1.251404 -0.06899,-0.140683 -0.160698,-0.327843 -0.230055,-0.469741 -0.137952,0.04892 -0.32239,0.114989 -0.460708,0.162701 -0.136467,-0.06972 -0.319043,-0.162701 -0.455876,-0.232429 -1.453617,1.029992 -1.997349,1.415329 -1.782716,3.482667 0.218988,2.11749 2.355534,3.296725 2.697814,5.354269 -0.406406,0.152917 -0.793802,0.05994 -1.181188,-0.03428 -0.268454,-0.06602 -0.536908,-0.130889 -0.812186,-0.112538 l -0.02441,0.02327 c 0.0048,0.01842 -0.202832,2.658176 -1.437955,4.083298 -0.530068,-0.06364 -0.965559,0.17371 -1.401545,0.409795 -0.409263,0.221412 -0.818527,0.442822 -1.30646,0.417139 -0.81952,-1.41044 1.865236,-1.400655 2.556995,-2.353578 2.154574,-2.965225 -1.025836,-8.321943 -1.059264,-8.373321 -0.719968,-1.122965 -1.74866,-0.757215 -2.779843,-0.391454 -0.528695,0.187168 -1.057894,0.375553 -1.546821,0.362094 -0.0067,0 -0.01352,0 -0.363529,0.01957 -0.0306,0.0085 -4.70051,3.700403 -7.140552,7.86688 -1.631224,2.786614 -3.336137,4.400121 -5.21306,4.929798 -0.680071,-0.484416 -0.596181,-1.350502 -1.013155,-1.965808 -0.14715,0.03913 -0.343264,0.09052 -0.490298,0.128448 0.964566,-2.150516 0.96556,-2.151741 1.448156,-3.063078 v 0 l -0.104408,0.129664 c 3.768765,-7.852204 3.768765,-7.852204 6.95787,-7.723755 1.67247,0.06602 5.854472,-4.967726 4.242647,-7.755567 0.95835,-0.582278 1.00446,-0.600629 2.469127,-0.976173 0.953006,-2.360919 11.104448,-7.893789 11.196164,-7.9256 l 0.352963,0.329068 c 1.11569,-1.181684 1.759854,-2.699769 2.866714,-3.886346 0.184061,-0.179827 0.441331,-0.409795 0.636955,-0.576162 l 0.05241,-0.02451 c 0.859782,-0.700946 1.214742,-0.751097 1.705532,-0.820816 -0.848597,0.896652 -1.441931,2.023293 -2.520584,2.713219 0.166537,-0.01349 0.387887,-0.03058 0.554425,-0.04398 -0.541378,0.823267 -0.541378,0.823267 -1.219587,0.881978 0.06745,-0.1578 0.158334,-0.366986 0.225818,-0.52356 -0.557907,0.88932 -0.519991,0.956598 -0.22631,1.487509 0.002,-9.49e-4 0.890856,-0.10399 2.116658,-0.195736 -0.12229,0.08197 -0.286348,0.19206 -0.409631,0.274014 0.07768,0.135791 0.18107,0.319283 0.259247,0.45629 0.04564,-0.0038 4.659621,-0.415912 5.63686,-1.043461 1.456977,-2.137057 2.699307,-3.53281 3.691577,-4.149342 0.25926,0.143125 0.55108,0.433039 0.71128,0.677692 1.65011,-0.187158 1.26656,-1.95969 2.16041,-2.738913 0.57083,-0.49665 0.57083,-0.49665 5.1606,-0.769438 -0.0504,-0.181042 -0.11745,-0.420814 -0.16803,-0.601847 -0.15771,-0.08074 -0.36701,-0.188393 -0.52422,-0.270346 l -0.067,-0.337626 c -4.10482,0.718061 -4.10482,0.718061 -4.86506,0.458722 1.24083,-1.856927 1.24083,-1.856927 5.96223,-5.439899 -1.91085,-1.337043 -2.44291,0.265456 -2.61777,0.791456 -6.40157,2.440431 -6.07969,4.348745 -5.92482,5.264974 -6.850112,5.871721 -6.850112,5.871721 -8.526943,5.976927 0.0607,-0.172484 0.142304,-0.402453 0.202463,-0.574938 -1.379801,1.39943 -1.379801,1.39943 -1.783718,1.701569 -0.135839,-0.06116 -0.317411,-0.143115 -0.453877,-0.201835 0.866623,-0.316832 0.866623,-0.316832 1.002965,-1.335816 1.908488,0.364534 3.126589,-3.390923 3.647459,-4.995851 -1.425401,1.132748 -2.038489,1.461814 -3.159527,1.875277 -0.121295,-0.08197 -0.282997,-0.192052 -0.403425,-0.274014 0.08937,-0.513776 0.437849,-0.949265 0.451523,-1.485059 1.172357,-1.070362 1.844363,-2.637373 3.39927,-3.327309 1.031174,-0.475849 1.163779,-0.537019 2.043449,-0.956598 2.528431,-1.222054 4.786761,-2.886929 7.221971,-4.263106 l 0.0535,-0.01349 c 1.10587,-0.699719 1.36811,-0.866086 1.60113,-1.077713 v -0.0028 0.0028 l 0.23155,-0.226303 c -0.33842,0.09052 -0.80398,0.160251 -1.15347,0.183493 0.90105,-0.534577 1.91755,-0.820818 2.84732,-1.293002 -0.0962,0.110095 -0.22384,0.258112 -0.3204,0.368204 1.18405,-0.09052 2.06323,-0.930911 3.15604,-1.245293 -0.008,0.141901 -0.0174,0.331506 -0.0252,0.472185 1.20256,-0.30949 1.20256,-0.30949 1.40354,-0.48931 0.16366,0.0269 0.38154,0.0636 0.54571,0.09052 0.4432,-0.587171 0.52423,-0.692373 1.59815,-1.063024 0.13548,0.07706 0.31656,0.179819 0.45153,0.256887 -0.28933,0.176151 -0.66516,0.42937 -0.93945,0.628762 1.0006,-0.473406 2.01474,-0.629988 2.44838,-0.696044 -0.11994,0.0844 -0.27878,0.196949 -0.39822,0.282578 0.17488,-0.0526 0.4079,-0.122326 0.58215,-0.174927 0.14852,0.08562 0.34712,0.199395 0.49465,0.28502 -0.34178,0.113768 -0.79716,0.266675 -1.13843,0.384111 1.60649,0.105203 1.60649,0.105203 1.80161,0.130888 0.0282,0.140679 0.0661,0.325392 0.0941,0.464846 2.6978,0.574938 3.70761,0.789011 3.99159,1.454474 0.38217,0.896662 -1.24769,1.991492 -2.00742,2.140733 -1.44914,0.283797 -2.52891,-0.825718 -3.85911,-0.989633 0.85009,3.36401 0.85009,3.36401 1.79626,3.131582 -0.0709,-0.297257 -0.23054,-0.681359 -0.38788,-0.945589 1.96143,-0.05994 3.4271,-1.70647 5.42668,-1.642858 0.0932,0.116205 0.218,0.271563 0.31072,0.387778 0.75015,-1.6502 0.75015,-1.6502 0.89919,-2.217796 -0.0777,-0.124772 -0.1801,-0.289912 -0.25827,-0.414696 1.30397,-0.665454 1.98169,-0.400004 2.01611,0.792683 -1.13991,0.04408 -1.36026,0.08074 -1.52296,0.945597 1.34672,0.108873 2.49248,-0.461172 3.637759,-1.033669 1.13021,-0.562703 2.25995,-1.126637 3.58332,-1.036111 -0.2646,0.189604 -0.60786,0.456284 -0.8583,0.663009 3.99695,-0.189601 4.58393,-0.494199 5.32615,-0.87831 -0.0456,-0.0636 -0.0456,-0.0636 -1.51612,-1.155993 6.58811,1.940115 6.58811,1.940115 6.84538,1.858153 -0.82029,-0.847729 -1.16204,-1.637962 -1.0154,-2.348684 0.23241,-1.12786 1.71759,-1.219606 1.98107,-2.320551 0.31072,0.02327 0.72209,0.114988 1.0154,0.218963 h 0.005 l 0.087,0.0025 c 0.14293,0.04769 0.33309,0.112546 0.476,0.160251 0.68356,1.44958 0.40766,3.138925 1.16952,4.568926 -0.41139,1.060579 -0.45365,1.173127 -1.89533,1.771307 3.38175,-0.223863 3.01262,-1.51931 2.81501,-2.216579 1.43796,-0.729068 2.18739,0.735196 3.31215,1.007985 h 9.7e-4 0.002 9.7e-4 9.6e-4 9.6e-4 0.002 9.6e-4 9.7e-4 c -1.55727,-1.317465 -3.7086,-1.911982 -4.79112,-3.806833 0.73949,-0.481971 0.73949,-0.481971 0.94579,-1.246514 0.12304,0.08685 0.2871,0.201839 0.4089,0.288691 0.015,0.374319 0.0783,0.872192 0.1566,1.240401 0.31194,0.151687 0.31194,0.151687 2.14636,0.266675 -0.17772,-0.254441 -0.17772,-0.254441 -1.50257,-0.90767 0.14292,0.03427 0.33307,0.07952 0.476,0.113763 0.1131,-0.09052 0.26347,-0.2104 0.37657,-0.299704 -0.12303,-0.07952 -0.28584,-0.183488 -0.40889,-0.261779 0.0102,0.0049 2.28805,0.505212 3.70861,0.559034 -0.66865,-0.911338 -1.04149,-1.132752 -2.21349,-1.318687 h -0.003 c -9.7e-4,0 -0.003,0 0.21874,-0.09421 1.27886,-0.31805 2.64226,0.04648 3.89751,-0.467289 -0.14044,-0.05994 -0.3281,-0.137009 -0.46855,-0.195722 -0.27342,-1.299121 0.41262,-1.288112 3.29475,-1.240402 0.2063,-0.215295 0.58662,-0.407354 0.88117,-0.469742 0,0 0.80908,0.234873 2.81625,0.13701 -0.12181,-0.09297 -0.28585,-0.217743 -0.41014,-0.310712 0.13423,0 0.31195,0 0.44494,-0.0014 0.50707,-0.650782 0.50707,-0.650782 1.18814,-0.796351 2.9045,-0.05995 5.52686,0.97984 8.148,2.019622 2.6087,1.033673 5.21741,2.06856 8.10325,2.019629 0.0809,-0.113763 0.18767,-0.266675 0.26722,-0.380438 -0.0423,-0.141899 -0.0994,-0.330283 -0.14169,-0.472184 2.84856,0.699714 5.30688,2.852677 8.51587,2.212902 -0.0484,-0.161472 -0.11186,-0.375546 -0.15908,-0.537014 1.44416,-0.459954 2.77897,0.261779 4.16845,0.379211 0.003,0 0.005,0 -0.32313,-0.0734 l -0.35047,-0.299704 c 0.53316,-0.02201 0.53316,-0.02201 1.44913,0.07462 -0.33929,-0.140678 -0.7892,-0.330282 -1.12725,-0.474631 -0.0497,-0.134561 -0.11807,-0.314379 -0.16903,-0.450164 5.34914,-0.440381 5.722,-0.146794 7.10776,0.948038 1.60698,1.269761 3.38671,1.119296 5.16645,0.967611 0.90354,-0.07706 1.80582,-0.15413 2.68699,-0.04527 2.30297,0.286248 4.6283,0.314385 6.93126,0.594516 0.28585,0.03427 0.64628,0.203061 0.88739,0.357196 -0.13546,-0.04038 -0.31443,-0.09664 -0.44867,-0.138232 1.90278,0.681363 2.20603,0.73152 3.10709,0.88076 -2.06311,-0.850178 -2.06311,-0.850178 -2.30794,-1.341935 4.53135,-0.244654 15.58012,2.742581 17.3872,4.699821 -0.15162,0 -0.35296,-9.5e-4 -0.50335,-9.5e-4 0.21874,0.101531 1.3609,0.642216 2.3067,1.361502 -2.64102,1.362726 -4.10632,-1.3248 -6.22783,-1.748055 1.07132,0.702161 1.07132,0.702161 1.44542,0.974949 -0.0769,0.11499 -0.18021,0.267898 -0.25851,0.382887 1.8369,0.957822 3.8217,1.631849 5.52934,2.830659 -0.61271,-0.227529 -0.72332,-0.267906 -1.5933,-0.342517 0.10564,0.189601 0.24732,0.441596 0.35295,0.631206 -0.0982,0.118655 -0.22866,0.277681 -0.32685,0.396337 0.57419,0.512559 0.6935,0.618981 1.32983,1.691793 -0.0671,0.122332 -0.15535,0.285023 -0.22247,0.40857 -2.26691,-0.492974 -2.81998,-0.355967 -3.30717,-0.233635 0.18767,1.181674 3.3283,2.943188 3.36061,2.960324 0.0311,0.01472 3.61787,2.13094 5.45727,4.233745 -0.0174,0.17616 -0.0423,0.40858 -0.0609,0.582279 0.4524,0.543136 0.4524,0.543136 1.74121,1.793325 h -0.002 c -0.002,0 -0.002,0 -0.21501,0.08444 0.29206,1.092379 1.11481,1.886286 1.64798,2.842893 0.10564,0.114979 0.21253,0.67035 0.30822,1.159657 -0.11309,-0.119881 -0.26222,-0.27768 -0.37533,-0.396335 l -0.0161,-0.01834 c -0.0708,-0.1578 0.0349,-0.403679 0.077,-0.572497 -3.62035,-3.85576 -8.43508,-6.228912 -12.38852,-9.672427 h 0.002 0.003 0.004 0.003 0.002 0.004 0.003 0.004 c 0.0982,-0.1468 0.22992,-0.342518 0.32935,-0.489318 -1.52619,-4.084513 -4.37849,-5.373835 -5.19006,-5.35916 0.84886,0.61408 1.0738,0.762097 1.85306,1.222043 -0.14167,0.0076 -0.33059,0.0171 -0.47352,0.02451 0.092,0.352301 0.27342,0.807366 0.43375,1.135199 -2.4459,-1.631849 -2.70937,-1.694235 -3.81798,-1.956015 l -0.30946,0.337625 c 0.11062,0.835492 0.11062,0.835492 3.28852,3.406823 -1.08871,1.49239 -2.3278,0.41102 -2.56519,0.179816 0.11309,-0.08559 0.26347,-0.199393 0.37658,-0.283798 h 0.002 l -0.0646,-0.03428 c -0.27467,-0.03913 -0.64379,-0.06972 -0.92095,-0.07466 h -0.0212 -0.0224 -0.0212 -0.0212 -0.0224 -0.0212 -0.0224 c -0.008,0 -0.015,0 -0.32687,0.0038 -0.33308,-0.01101 -0.77678,-0.05139 -1.10612,-0.102756 l 0.056,0.04644 c -0.57668,0.150466 -1.17324,-0.0057 -1.76855,-0.161466 -0.92964,-0.242213 -1.85927,-0.485642 -2.71683,0.430587 -1.12352,1.200035 -1.21797,7.006919 4.04293,7.109675 -1.52869,-1.359061 -1.52869,-1.359061 -1.70766,-1.828801 0.0199,0.01225 2.04074,1.250187 2.40737,2.281416 0.22868,-0.132116 0.55555,-0.276465 0.80785,-0.358427 -0.22247,-0.195717 -0.46856,-0.526001 -0.56549,-0.803682 1.1869,0.0038 2.8933,0.335175 4.29025,1.881386 -0.13795,-0.02081 -0.32314,-0.04768 -0.46233,-0.06602 8.03987,4.703497 10.0719,13.611387 8.81913,16.272003 -0.16158,0.05632 -0.37659,0.129675 -0.53816,0.185944 -0.60277,-0.289914 -0.60277,-0.289914 -1.24904,-0.988409 l -0.30822,0.337627 c -0.0733,-0.11499 -0.17027,-0.269123 -0.2436,-0.384112 0.14417,0.321725 0.2436,0.801249 0.21874,1.152325 -0.14788,-0.02327 -0.34425,-0.05509 -0.49215,-0.07704 2.05315,1.730929 0.15161,4.378095 1.50009,6.271733 1.18939,1.667317 3.53212,2.057545 4.5065,3.962182 0.38651,0.752313 0.38651,0.752313 0.96444,3.383579 -0.26969,0.0379 -0.6239,0.132115 -0.87619,0.231193 -0.003,0.1309 -0.006,0.307052 -0.009,0.437941 -2.65592,1.001858 -3.72102,-3.959742 -3.63528,-4.434373 l 0.36913,0.288688 c -0.12552,-0.764546 -0.20755,-0.988408 -1.41807,-1.600038 l 0.0547,-0.03913 -0.11932,-0.01102 0.0547,0.04037 c -0.87743,-0.298482 -1.82075,-0.365761 -2.67705,-0.737638 -0.0733,-0.278906 -0.0447,-0.704611 0.0969,-0.957823 -1.07504,-0.501542 -1.53241,-1.922988 -2.95048,-1.915647 -1.3062,0.0076 -0.64502,1.96825 -1.95249,1.94133 -0.14541,-0.0028 -0.32438,-0.09422 -0.46357,-0.134556 -0.1392,-1.075262 -0.27219,-1.115631 -0.82772,-1.285664 0.0907,-0.155349 0.2759,-0.342518 0.30076,-0.52111 0.0547,-0.381669 -0.5978,-2.080796 -1.80335,-1.597596 -0.0423,0.01472 -3.48116,2.346243 -1.83068,4.150566 2.03202,2.219021 5.05086,0.714396 7.36004,1.889963 -0.22867,1.186575 -1.57591,1.903412 -1.40812,3.25513 0.0659,0.522344 0.11557,0.934579 2.2147,3.214771 1.81703,1.903411 3.2525,3.215986 4.65566,4.250871 l -0.35545,0.242213 c -0.72084,-0.322942 -1.1695,-1.06302 -1.98108,-1.245287 0.0759,0.03305 1.88661,0.809806 2.11903,3.116897 l -0.2846,0.310716 c 2.00469,0.42203 2.00469,0.42203 2.38747,1.869161 -0.0398,0.124773 -0.18643,0.245879 -0.26473,0.34985 0.50957,1.074033 0.49341,1.184131 0.39896,1.898525 -0.13795,0.01959 -0.3219,0.04412 -0.45985,0.06361 -0.21998,0.658116 -0.50831,3.766471 0.0708,5.055801 h 0.002 v 0 h 0.002 v 0 c 0,0 0.002,0 0.14418,-0.14312 -0.27964,1.73585 -0.3219,2.00253 -1.65918,3.29797 -1.46282,1.41289 -3.53088,1.89975 -5.06329,3.205 -0.15164,-0.49787 -0.20756,-0.68381 -0.83643,-1.08993 0.49092,0.98595 0.57915,1.16332 -0.61024,2.66917 -0.0274,-0.0293 -2.79884,-2.16641 -3.39666,2.69123 1.0067,0.82081 1.43175,1.58414 0.9632,3.4741 -0.45611,1.41655 -1.87046,1.72604 -2.67209,1.78476 0.16406,-0.28747 0.37037,-0.67525 0.52075,-0.96883 0.17648,-3.83621 0.17648,-3.83621 0.80038,-4.22031 0,-0.55168 0.002,-1.84226 -0.84139,-2.21902 -0.45985,-0.20551 -5.58403,0.24099 -5.23853,3.08756 0.64751,5.31268 6.46272,7.87299 7.2134,13.1294 0.2672,1.87284 -0.50585,8.30849 -3.34572,6.24115 -0.087,1.38841 -1.39569,5.035 -3.29722,4.04905 0.19015,-0.29971 0.44368,-0.69728 0.6326,-0.99454 -1.04274,-4.12365 -5.72199,-5.46191 -7.2718,-9.19779 -3.32581,2.19333 -2.27065,7.49866 -2.13891,8.09685 0.53566,2.44655 2.75783,3.71507 4.05908,5.62584 2.23212,3.27716 1.53738,7.36657 3.10211,10.82842 0.0733,0.1627 0.31816,0.27281 0.45362,0.39023 -3.30219,0.59818 -4.5065,-2.06121 -5.81768,-7.8681 -1.10506,-4.8871 -1.65189,-6.47002 -3.46644,-5.0498 -0.44243,-1.64163 -0.62389,-2.32178 -0.23986,-5.2405 1.01539,-7.70296 -2.47075,-13.4022 -3.56444,-14.96309 0.0485,1.75784 -0.33308,1.9242 -0.911,2.17497 m 13.99676,30.94641 0.006,-9.5e-4 -0.006,9.5e-4 m -14.14093,-8.48219 0.006,-9.5e-4 -0.0124,9.5e-4 h 0.006 m 13.33806,24.03368 0.006,-0.006 -0.1479,-0.137 -0.0173,0.022 0.15907,0.1211 m 22.74633,-58.16673 0.0161,0.0109 c -0.13049,-0.16146 -0.25477,-0.32783 -0.39397,-0.48318 l 0.009,0.0183 c 0.0571,0.12966 0.15785,0.31805 0.36912,0.45383 m -0.8215,-1.06792 -0.0695,-0.0562 h -0.009 l 0.0783,0.0562 m -0.0111,0.0673 -0.20134,-0.19206 0.003,0.0233 0.14914,0.12355 0.0497,0.0454 m 0.13545,-3.57933 c 0.49962,-0.88442 0.66616,-1.22449 0.57668,-1.58659 l -0.041,-0.0845 c 0.0933,0.16271 0.22123,0.38535 0.24732,0.88445 0.0349,0.64711 -0.13298,1.44958 -0.27964,2.15909 -0.27838,1.32848 -0.41137,2.05389 -0.18393,2.73526 -0.38029,-0.46606 -0.38029,-0.46606 -0.75812,-0.74254 l 0.0583,0.0331 c -0.11932,-0.10153 -0.11932,-0.10153 -0.14666,-0.14189 l 0.13795,0.0757 c -0.75315,-0.91869 -0.47351,-1.80556 0.38902,-3.33223 m -9.40823,4.04417 -0.0882,0.13089 0.0894,-0.13089 0.002,-0.005 -0.003,0.005 m 4.13615,53.06691 c 0.0137,-0.006 1.14961,-0.35597 0.21874,0.76333 0.27466,-0.30461 0.60527,-0.74988 0.79291,-1.11319 0.53567,-1.04223 0.40021,-2.26306 0.90853,-3.31386 0.61893,-1.28321 1.80085,-2.19577 2.3825,-3.50468 0.40765,-0.91501 0.37409,-1.3138 0.31941,-1.97559 0.7457,0.91991 1.06386,0.38779 1.16701,0.11743 0.25479,-0.67403 0.17649,-2.02207 -1.64549,-4.61785 0.24855,0.16025 0.24855,0.16025 0.41013,0.2263 0.015,-0.0574 0.015,-0.0574 -0.57295,-1.00186 0.24857,0.022 1.039,0.0245 0.8215,-0.8098 l 0.0684,0.0991 0.1044,-0.0454 c -0.0102,-0.10763 -0.0311,-0.3315 -0.17153,-0.78655 0.62267,0.55414 1.01788,-0.15659 0.97811,-0.60919 -0.0111,-0.13579 -0.0858,-0.30705 -0.14291,-0.43061 v -9.5e-4 l 0.0249,-0.0233 c 0.19885,-0.2214 1.92639,-2.15664 0.95947,-2.17865 -0.34053,-0.009 -0.96443,0.27402 -1.26396,0.40857 0.24484,-0.16024 0.24484,-0.16024 0.32438,-0.30091 -0.19512,-0.0868 -0.19512,-0.0868 -0.76311,-0.0293 0.60403,-1.3346 -0.42379,-1.97804 -0.67858,-1.95724 -0.19138,0.0624 -0.22245,0.1003 -0.35421,0.26178 l -0.005,-0.11743 c -0.0174,0 -1.82822,0.0979 -2.54285,4.54812 -0.0398,-0.40611 -0.0882,-0.48563 -0.34301,-0.74741 -0.33805,0.65202 -0.49092,1.06547 -0.65622,1.77498 -0.60153,-0.13823 -0.38155,-0.9713 -0.97562,-1.11808 -0.68728,1.8765 -3.79685,4.44294 -4.22688,3.78604 l -0.041,-0.10887 c -0.41885,0.97739 -0.57046,1.62204 -0.6177,2.65205 -0.61023,-0.47463 -1.98853,-0.24465 -1.90401,-1.32235 -1.0738,1.04345 -1.51875,1.47526 -1.35345,3.62577 0.005,0.0697 0.9719,7.04852 2.17869,7.12314 0.37036,0.0245 0.70965,-0.55904 0.87371,-0.83917 0.21003,1.18169 2.80754,1.30646 3.56692,0.91379 -0.40269,1.64408 1.37457,1.00431 2.1588,0.652 m 12.26675,8.62654 c 0.10065,-0.21284 -0.11062,-0.19083 -0.35547,-0.16514 -3.03871,0.69605 -4.94894,3.24535 -5.42744,4.16892 0.17897,-0.0563 0.60028,-0.18838 1.95622,-0.91502 h -0.002 c 1.2366,-0.67279 3.54455,-2.47834 3.82791,-3.08876 m -23.7393,-0.95293 0.25105,-0.0172 0.004,-0.003 v -0.002 l -0.37285,-0.0281 0.11807,0.049 m 5.4262,-1.01778 0.002,0.006 -0.002,-0.006 m -5.5654,1.01778 h 0.0372 c -2.10534,-0.43306 -3.43021,-0.86609 -5.44981,-1.78232 1.06512,-0.32051 1.84934,-1.14377 2.86846,-1.54623 0.89733,-0.12965 1.61195,0.28871 2.32658,0.70583 0.64751,0.37799 1.29378,0.756 2.07676,0.72908 1.41932,-0.0514 2.75909,-0.69727 4.20574,-0.54802 l 0.3306,0.0416 c 0.96941,0.19083 1.08873,0.65568 1.19436,1.0667 -0.5456,0.36821 -1.16205,0.66668 -1.9674,0.35475 0.41386,0.65322 0.48844,0.77187 1.77477,0.96637 1.96491,0.29726 1.75113,1.04837 1.63929,1.27099 l -0.0907,0.12846 c -0.24733,0.274 -1.53365,0.77554 -1.52992,-0.47586 -0.23614,0.87709 -2.04943,0.42692 -7.43337,-0.91134 h 0.0173 m 18.91712,1.04467 0.55803,0.15658 -0.041,0.093 c -0.18269,0.049 -0.42878,0.0991 -0.6152,0.13334 0.10936,0.11743 0.10936,0.11743 0.50707,0.2679 l 0.0509,-0.0416 c 0.39397,-0.10642 0.75688,-0.29725 1.14589,-0.41223 l -0.0832,0.18593 c 0.14666,-0.0306 0.35545,-0.0513 0.47724,-0.137 0.14791,-0.1052 0.16158,-0.30216 0.29828,-0.41469 l 0.0933,-0.0477 -0.0845,-0.0318 h -0.015 c -0.0783,-0.011 -0.15535,0.003 -0.23117,0.0172 -0.0933,0.0172 -0.18642,0.0331 -0.28087,0.005 -0.37906,0.0355 -0.56052,0.0697 -0.77926,0.14435 -0.43499,-0.48564 -1.06262,-0.027 -1.06883,-0.0209 -1.10986,-0.31806 -2.86473,-0.18593 -3.77573,-0.0208 -0.59407,0.10886 -1.09865,0.48319 -1.70143,0.56881 -0.4437,0.0624 -0.86128,-0.10642 -1.29254,-0.14556 0.10439,0.15046 0.16654,0.21895 0.36291,0.28991 -0.37409,0.26789 -0.53193,0.0624 -0.81903,-0.30949 -0.68356,-0.0122 -0.95822,0.10031 -1.13968,0.17371 -0.21253,-0.65446 -0.55553,-0.81103 -0.70717,-0.80246 -0.61519,0.1945 -0.20382,0.71561 0.42132,1.50462 l 0.0397,-0.022 c 0.54313,0.1468 1.08498,0.0832 1.62687,0.0183 0.46606,-0.0562 0.93213,-0.11131 1.39941,-0.0331 -0.30074,-0.74254 3.51846,-0.32416 3.55949,-0.31561 l -0.0622,0.0943 c 0.72706,-0.27768 1.39819,-0.68993 2.1563,-0.89789 m 3.50728,-37.41264 c 0.26846,0.58106 1.35842,-0.38288 1.36836,-0.39267 0.19264,-0.17371 0.29951,-0.3523 0.31692,-0.52723 0.0261,-0.25566 -0.0783,-0.3731 -0.38901,-0.72051 -0.67982,-0.75843 -0.83891,-0.99085 -0.96443,-1.19636 -0.0435,0.0208 -0.0708,-0.005 -0.13919,-0.12967 l 0.002,0.0354 c -0.006,0.1211 -0.0198,0.22631 -0.0858,0.65689 -0.10937,0.70216 -0.29207,1.87895 -0.10813,2.27407 m 0.71712,22.94741 0.002,9.5e-4 -0.0845,-0.0331 0.0832,0.0318 m -0.52682,-25.91378 h 0.002 l -0.0161,-0.022 0.015,0.022 m 6.14828,30.13905 c -0.6326,0.0355 -1.54732,0.3841 -0.7954,1.03122 l 0.30821,0.2153 -0.0597,0.0599 0.0162,0.01 0.0622,-0.0588 c 1.09369,0.59083 2.21099,0.64221 2.54408,0.11743 0.23489,-0.37187 -0.092,-0.70705 -0.14789,-0.7413 0.0124,0.13211 0.13795,0.28013 0.20009,0.39878 -0.60279,-1.00553 -1.87917,-1.03611 -2.12773,-1.03245 m -2.53289,-8.36841 c 0.0597,-0.21163 0.0361,-0.51255 0.009,-0.72908 -0.19389,0.0416 -0.45116,0.0967 -0.64379,0.137 -1.70392,0.33886 -3.44885,0.43795 -5.14283,0.84163 -0.46855,0.11131 -0.81654,0.32294 -1.03279,0.62876 -0.1305,0.18717 -0.21253,0.37186 -0.27965,0.51866 -0.37284,0.83061 -0.52695,1.7285 -0.81654,2.58357 -0.5543,1.62939 -1.8431,2.89181 -2.339,4.54936 -0.49962,1.66487 -0.0969,3.39458 -0.37656,5.07536 0.56921,-0.18226 0.99675,-0.18717 1.47399,-0.0208 0.008,-0.0464 0.93832,-4.61542 1.71261,-5.36283 0.35048,0.4893 0.40391,0.56515 0.21252,2.07834 -0.26844,2.12483 0.89111,1.7236 1.12601,1.62084 -0.0945,0.22019 -0.38031,0.89177 -0.29207,1.69547 l 0.13051,0.0747 c 0.68106,-0.32049 1.26519,-2.04042 1.24282,-2.68509 -0.2672,0.0845 -0.42132,0.17371 -0.6587,0.38289 0.28212,-1.74195 -0.48719,-3.37747 -0.53565,-5.08515 1.09493,1.36639 1.71262,-1.8655 3.02255,-2.19212 h 0.002 c -0.60027,-0.11009 -1.20677,-0.0282 -1.81203,0.0551 -0.83022,0.11254 -1.66043,0.22508 -2.47945,-0.15536 -0.56176,-0.26178 -0.32065,-0.69972 0.82897,-1.51198 1.25153,-0.8844 2.03326,-0.78777 3.5868,-0.59695 1.35842,0.16882 1.46033,0.0697 2.02705,-0.47462 l -0.22246,0.28991 c 1.15211,-1.33948 1.15211,-1.33948 1.25774,-1.71747 m -6.66651,-19.0048 c 0.0597,-0.85017 -0.24483,-1.36762 -0.42754,-1.67588 l -0.0733,0.14067 c -0.21004,0.46851 -0.5456,1.28077 -0.42753,1.45571 0.0695,-0.0281 0.11061,-0.044 0.33805,-0.3462 -0.99178,1.64775 -2.07552,3.33464 -2.17744,3.47777 v -9.5e-4 l -0.13671,0.20185 c -0.34179,0.54924 -0.51951,0.91011 -0.75689,1.54255 1.44418,-0.7462 3.52095,-2.82822 3.66138,-4.79525 M 48.921184,73.535186 c 0.172877,-0.238536 0.70108,-0.965155 1.246684,-2.082003 0.190403,-0.389003 0.325749,-0.711953 0.376829,-0.833059 l -0.116577,0.05386 c -0.71848,0.492984 -1.428759,1.788424 -1.401042,1.876504 v 0 0 c -0.24074,0.515001 -0.265474,0.743744 -0.106764,0.984732 m -14.200328,4.287583 0.033,-0.04644 v 0 l -0.03349,0.04644 m 13.098312,-3.639241 -0.0038,0.04408 c -0.03253,0.174925 -0.09515,0.364525 -0.304991,0.973724 -0.386401,1.122965 -1.034531,3.001908 -0.482964,2.654508 0.495635,-0.311941 1.411234,-1.854485 1.85492,-2.800083 0.548219,-1.170667 0.223339,-1.157217 0.117571,-1.152315 -0.06514,0.0085 -0.270935,0.05747 -0.778757,0.341282 -0.387887,0.217745 -0.38838,0.196953 -0.40243,-0.06117 m 16.982042,6.830769 0.01033,-0.0085 v -9.5e-4 l -0.01109,0.0098 v 0 m 28.432722,18.51301 c 0.34912,0.05507 0.43599,0.02085 0.45637,-0.0039 0.0388,-0.05013 -0.10439,-0.118648 -0.24085,-0.116214 -0.1315,0.0087 -0.18207,0.06603 -0.21552,0.119889 M 193.49614,221.67889 c -0.28212,-0.006 -0.56299,-0.049 -0.84511,-0.0439 -0.28834,0.0122 -0.88615,0.0379 -1.90278,0.68013 -1.17324,0.74009 -2.13892,1.73583 -3.24006,2.56644 1.3286,-0.22998 1.48892,-0.33518 3.0238,-1.34562 1.45661,-0.95904 2.6087,-1.71747 2.88338,-1.83 l 0.0808,-0.0269 m 17.8309,-5.46682 c -0.17401,0.16148 -0.34675,0.32293 -0.52199,0.48318 0.23241,-0.19693 0.40765,-0.35718 0.52199,-0.48318 m 8.4674,-15.49033 0.18145,-0.22264 -0.005,0.006 -0.17648,0.21651 m -24.27,14.48358 0.015,-0.0122 -0.0646,0.0563 0.0497,-0.0439 M 48.070175,57.020885 c 0.294172,-0.119881 1.888472,-0.869742 4.368796,-3.853309 0.254905,-0.305825 1.030178,-1.23918 0.499619,-1.22328 l -0.11124,0.01472 c -0.974747,0.310706 -1.632083,1.135198 -2.556001,1.529093 -0.16753,0.429372 -0.320903,0.618983 -0.686412,0.842835 0.180579,0.20551 -0.153499,0.593288 -1.022979,1.438572 -0.46072,0.446488 -1.863249,1.809225 -0.491783,1.251403 m 150.640345,-17.48793 0.0236,0.01349 -0.0224,-0.01349 h -0.002 m 0.0484,0.02812 -0.0249,-0.01472 0.0235,0.01472 h 0.002 m 15.15145,174.242101 c -0.97439,0.79635 -1.85679,1.69179 -2.80259,2.5175 0.12428,-0.0697 0.2262,-0.17005 0.34427,-0.24833 l -0.12428,0.13946 c 0.93833,-0.86609 1.86921,-1.74318 2.83489,-2.57989 l -0.25229,0.17126 m -10.99408,8.57515 c 0.55926,-0.0379 5.45728,-3.27839 7.11024,-4.63255 l 0.0795,-0.066 c -0.37285,0.11865 -0.60277,0.45627 -0.95574,0.60552 0.11436,-0.16514 0.11436,-0.16514 2.16501,-1.91321 -0.31567,0.23855 -0.63633,0.47219 -0.94331,0.72052 0.14666,-0.1309 0.28834,-0.26545 0.43375,-0.39757 -2.01089,1.68567 -7.82361,5.64052 -7.88948,5.68334 m 1.11233,-0.84407 c -0.39273,0.21285 -0.77553,0.44039 -1.1695,0.64833 1.17696,-0.80001 1.17696,-0.80001 1.22169,-0.92968 l -0.31568,0.0795 c -2.11404,1.14743 -4.03298,2.62271 -6.25515,3.58541 -3.13567,1.36153 -3.13567,1.36153 -3.97209,1.82514 -1.69646,0.94315 -1.86549,1.17067 -1.89532,1.32358 0.77304,0.29725 9.45671,-4.54691 11.77334,-6.11271 0.18517,-0.12477 0.42878,-0.29357 0.61271,-0.41958 M 102.93092,25.96559 c 0.24321,-0.03427 0.6976,-0.09785 1.2049,-0.05627 -0.31605,0.05382 -0.31605,0.05382 -0.34799,0.07585 l 0.0199,0.03791 c -0.22532,0.05015 -0.35296,0.06728 -0.52435,0.07218 0.10974,0.243433 0.43885,0.263006 1.25787,0.07218 l -0.19077,0.07218 0.23353,0.0159 c -0.0718,0.0844 -0.20581,0.242207 0.14082,0.205509 0.19611,-0.01958 0.51266,-0.110093 0.61656,-0.140674 l 0.0622,-0.01837 c -0.23937,-0.103977 -0.4632,-0.121107 -0.77292,-0.0575 0.11844,-0.02938 0.19128,-0.05872 0.30772,-0.129666 l -0.10339,-0.01959 c 0.25589,-0.06605 0.5108,-0.134556 0.76708,-0.195721 -0.0135,-0.165143 -0.0374,-0.442826 -0.91411,-0.425701 -0.62627,0.03427 -1.30398,0.187162 -2.01376,0.45628 0.131,0.0269 0.19998,0.03791 0.26261,0.0318 l -0.006,0.0039 m 110.80417,35.189917 -0.10688,-0.132105 h -0.002 -0.003 -0.002 -0.003 -0.003 -0.002 -0.002 -0.004 c -0.0472,0.0048 -0.004,0.118656 0.14541,0.382877 l -0.0224,-0.250772 M 106.87698,26.130903 107.4877,26.27403 c 0.17574,0.01958 0.34614,-0.0159 0.41113,-0.02937 l -0.0592,-0.139451 0.15337,-0.03669 c 0.5292,0.2104 0.5292,0.2104 1.60114,-0.240989 0.12429,0.36209 0.12429,0.36209 2.01935,-0.275235 l -0.0783,0.132113 c -0.12925,0.119885 -0.13421,0.132114 -0.15286,0.176156 0.041,0.011 0.1566,-0.0085 0.3455,-0.05873 l 0.0597,-0.117436 0.015,-0.03058 c 0.0435,-0.148017 0.0385,-0.163921 0.0212,-0.215295 -0.22743,-0.100312 -0.28833,-0.108872 -0.85258,-0.05627 l 0.25975,-0.222638 c -0.3741,-0.0061 -0.7109,0.182271 -1.07878,0.200617 9.7e-4,0.01837 0.0298,0.16759 0.38032,0.148017 -0.21625,0.07706 -0.4437,0.114988 -0.6628,0.181046 h -9.7e-4 -9.7e-4 -9.7e-4 -0.002 -9.6e-4 -9.7e-4 -0.002 -0.002 c -0.12827,0.0098 -0.3224,0.02327 -1.14093,0.215296 l 0.0311,0.09297 c -0.14031,-0.02326 -0.25106,-0.03058 -0.40827,-0.0269 0.24906,-0.07829 0.3951,-0.129666 0.60104,-0.215295 -0.30201,-0.07951 -0.51901,-0.11132 -0.89185,-0.127224 0.18592,-0.02201 0.48258,-0.09418 0.65932,-0.161472 0.24122,0.05994 0.80336,0.200618 0.86512,-0.0318 l -0.0622,-0.05627 c -0.15783,-0.04527 -0.32973,-0.01222 -0.48358,-0.08074 -0.40592,-0.179818 -0.45538,-0.171258 -0.50684,-0.162694 -0.0203,0.04159 -0.0203,0.04159 0.0436,0.20551 -0.53442,0.09297 -1.04223,0.327835 -1.60101,0.293585 l -0.10974,0.05504 0.0165,0.117432 c -0.035,0.02201 -0.0603,0.0367 -0.22383,-0.03058 l 0.0233,0.143122 -0.0408,0.0061 c -0.16989,-0.04038 -0.36651,-0.07585 -0.72867,-0.04648 -0.009,0.09297 -0.009,0.162694 0.0117,0.272792 0.92627,-0.033 0.92627,-0.033 0.96319,-0.0208 m 107.80074,36.848707 0.0535,-0.06601 v -0.0098 l -0.21004,-0.162691 0.15659,0.238537 m 0.54562,2.463673 -0.0224,-0.04768 -0.11436,-0.01586 c -0.10315,0.03429 -0.13795,0.16025 -0.10564,0.374318 l -0.0323,-0.07827 c -0.005,0.03058 -0.009,0.05386 0.30822,0.696044 0.13796,-0.09176 0.28834,-0.285023 -0.0336,-0.928473 m -0.85136,-3.039837 0.004,-0.03428 -0.19015,-0.113755 v 0.02204 c 0.0199,0.168817 0.15908,0.162701 0.18642,0.125997 m -0.99053,-1.87405 -0.0372,-0.11499 c -0.0933,-0.162691 -0.36787,-0.496651 -0.51577,-0.549244 v 0.0076 c 0.0199,0.08805 0.19264,0.333949 0.30822,0.472182 l 0.24485,0.184708 m -50.15442,-30.493789 0.0261,-0.07096 c -0.87123,-0.535794 -1.5958,-0.746198 -2.50182,-0.722956 -0.38776,0.03058 -0.64502,0.07341 -1.0589,0.234874 0.1069,-0.0269 0.37783,0.06239 0.88741,0.237311 0.95448,0.324171 2.39616,0.815927 2.64722,0.321724 m -32.86542,-2.216576 h 0.004 0.004 0.003 0.006 0.003 0.004 0.003 9.5e-4 c 1.22296,-0.01348 2.00967,-0.286244 2.36885,-0.447716 l 0.14665,-0.07095 c -0.42878,-0.384107 -1.49761,-0.74864 -2.15631,-0.736411 -0.83891,0.04769 -0.95823,0.940698 -0.68605,1.152325 0.13051,0.101533 0.25479,0.102755 0.30077,0.102755 m 24.14074,1.794544 -0.12055,0.01837 c 0.28957,0.04038 0.58412,0.01468 0.87495,0.05015 1.0067,0.125996 1.97362,0.450163 2.98652,0.546805 0.65622,0.0636 1.1173,-0.0098 1.21798,-0.110098 -0.10193,-0.231198 -1.79589,-0.491756 -1.81329,-0.492978 h -0.0111 l 0.004,0.0049 -0.005,0.0014 h -0.002 c -0.4238,-0.0318 -0.83145,-0.159024 -1.25152,-0.211625 -0.389,0.01958 -0.737,-0.122333 -1.08374,-0.265454 -0.33683,-0.13823 -0.67238,-0.275236 -1.04648,-0.265448 -0.21998,0.01837 -0.24235,0.08074 -0.26596,0.148016 0.12553,0.231194 0.40764,0.329059 0.51578,0.57616 m -29.83166,-3.143814 -0.0124,-0.02322 c 0.44121,-0.127223 0.82399,-0.170037 1.57094,-0.22386 -0.54561,0.06117 -0.66368,0.199392 -0.7718,0.386555 0.81529,0.267895 1.53116,0.781672 2.39121,0.935803 0.73948,0.133339 1.16452,-0.143123 1.34597,-0.260555 0.0461,-0.0318 0.18146,-0.128444 0.33433,-0.308268 l 0.0102,-0.01222 c -0.0385,-0.0318 -0.0385,-0.0318 -0.26597,-0.10887 -0.29082,-0.106425 -0.25602,-0.188384 -0.0111,-0.365755 -0.89855,0.01958 -1.26271,-0.167591 -1.72504,-0.404906 -0.54437,-0.278909 -0.9719,-0.411023 -1.93757,-0.403679 -0.34925,0.0073 -0.55929,0.0208 -0.89484,0.05015 0.0485,0.232419 0.0621,0.473405 -0.40144,0.393892 0.3393,0.07462 0.54188,0.103981 0.8675,0.130892 -0.37161,-0.0025 -0.59408,-0.011 -0.91596,-0.03669 0.0659,0.07462 0.23986,0.272787 0.41634,0.250772 m -68.090554,15.342309 -0.01689,0.01349 -0.07961,0.07095 c 0.225693,-0.196943 0.455865,-0.389002 0.683054,-0.583504 -0.253409,0.214077 -0.458229,0.389002 -0.586492,0.4991 m 152.335812,43.398118 -0.003,-0.0038 -0.0485,-0.05871 0.0509,0.0624 M 65.033504,38.004603 c -0.123786,0.03667 -0.250554,0.02811 -0.377697,0.01834 -0.145161,-0.0098 -0.290322,-0.01957 -0.430639,0.0379 -0.353957,0.144349 -0.57332,0.308265 -1.016629,0.693602 0.237505,-0.237321 0.32239,-0.337625 0.330217,-0.426921 -0.141311,-0.07702 -0.736499,0.254437 -1.554041,0.864851 1.322866,-1.157217 1.468037,-1.354159 1.563237,-1.486275 l -0.04324,0.0076 c -0.199474,0.138192 -0.481603,0.369385 -0.838415,0.682542 l 0.09274,-0.159024 c -0.05298,-0.01101 -0.103404,-0.02204 -0.747066,0.559036 l 0.02808,-0.05871 c -0.04613,-0.0076 -0.07673,-0.01102 -0.500991,0.294815 l 0.06446,0.0028 -0.0058,0.179817 0.03503,0.01957 -0.193759,0.132115 -0.03493,0.102756 0.02857,0.02327 c -0.01023,0.0038 -0.972884,0.369426 -0.957348,0.631216 l 0.137953,-0.01225 c -1.473006,1.058128 -0.8317,1.219602 -0.824867,1.220828 0.268946,0.06241 1.317152,-0.249555 2.346336,-0.877095 0.206316,-0.124773 0.475755,-0.300923 0.670384,-0.442822 0.347617,-0.253221 0.623405,-0.59818 1.020489,-0.79024 l -0.05481,-0.03058 c 0.03879,-0.101529 0.112099,-0.29114 1.262714,-1.186577 M 215.30717,64.469512 c 0.005,-0.07457 -0.0759,-0.286248 -0.23365,-0.610414 l -0.0199,-0.0416 -0.009,0.0416 c -0.0137,0.0832 -0.0361,0.236095 0.0174,0.404903 l -0.0907,-0.04644 c 0.0894,0.102746 0.32811,0.37921 0.33557,0.251987 M 52.236949,54.443656 c -0.877808,0.573721 -0.877808,0.573721 -2.509515,2.380495 -0.0048,0.0048 -0.151385,0.500317 0.284976,0.505208 0.290322,0.0038 0.671001,-0.227527 0.833561,-0.325381 -0.174738,0.136998 -0.266456,0.205511 -0.393223,0.292355 1.844362,-0.912563 2.21622,-0.492974 2.334649,-0.02564 0.234533,-0.780447 1.055049,-1.00675 1.52645,-1.564561 0.607743,-0.720512 0.05481,-0.667909 -0.241858,-0.639773 -0.165542,0.01472 -0.170387,0.01472 -0.245584,-0.0019 0.34812,-0.401238 0.874336,-1.007985 0.759747,-1.268539 0.447662,0.161475 1.15931,-2.968882 1.141409,-3.010477 l -0.09806,-0.110142 c 1.035031,-0.430587 2.731743,-1.88506 2.792898,-2.392728 -0.137335,-0.152908 -0.35334,-0.05871 -1.265581,0.33885 1.498609,-1.102172 1.498609,-1.102172 1.884132,-1.488724 -0.117445,0.110097 -0.274795,0.254437 -0.392732,0.364535 -1.299637,0.957822 -2.190493,1.203702 -2.432341,1.256305 0.06175,-0.11499 0.14379,-0.21652 0.189398,-0.338852 l -0.05529,-0.0098 c 0.485944,-0.349851 0.823747,-0.666683 1.096177,-1.023876 -0.211652,0.0038 -0.345135,0.118656 -0.788446,0.501542 -0.654479,0.544361 -0.654479,0.544361 -0.662682,0.581054 -0.416095,0.3364 -0.683054,0.68626 -0.733024,0.752313 0.252425,-0.234872 0.483465,-0.492984 0.727678,-0.736413 l -0.0087,0.05747 0.04324,0.03667 0.159705,-0.06117 c -0.464696,0.433039 -0.708783,0.834276 -0.710279,0.836716 0.127636,0.04531 0.176236,-0.04284 0.271311,-0.221409 l 0.01553,0.05509 c 0.08357,0.0076 0.134102,0.0038 0.429278,-0.196943 l -1.85269,1.559678 c 0.0058,-0.0028 1.015645,-0.556595 1.369109,-0.842843 -0.252425,0.259339 -0.252425,0.259339 -1.005955,0.874645 l 0.18742,-0.168818 c -0.692752,0.457507 -0.692752,0.457507 -1.136564,0.939482 0.200091,-0.135782 0.324378,-0.227529 0.531186,-0.398786 -0.113103,0.113754 -0.413616,0.414687 -0.532056,0.703376 0.06505,0 0.200961,0 1.072805,-0.823258 -0.69561,0.754754 -0.821382,0.911338 -0.845123,1.195135 0.09943,0.100305 0.101412,0.102755 0.535905,0.116215 -0.37235,0.267896 -0.87582,0.808582 -0.994259,1.130297 l 0.04179,0.04285 0.109744,-0.03305 c -0.520503,0.532136 -0.721965,0.694827 -1.433613,1.162118 m 156.580958,30.6467 0.0461,0.05747 -0.0485,-0.06117 0.003,0.0038 M 102.85015,33.263857 c 0.0301,0.07585 0.0568,0.140674 0.36267,0.233642 l 0.17376,-0.193275 -0.11112,-0.13823 0.11845,-0.160252 c 0.76558,1.160889 1.65892,1.377411 2.72937,0.661795 -0.2723,-0.545579 -0.73166,-0.977397 -0.97338,-1.542549 0.77092,-0.200617 1.4797,-0.81715 1.68465,-1.465482 0.41361,0.189604 0.9049,-0.09542 2.09045,-0.784122 1.27303,-0.736411 2.76815,-0.557815 4.12035,-0.972505 0.16654,-0.05016 0.37906,-0.143123 0.54063,-0.20551 -0.92591,-0.148017 -1.8543,-0.216516 -2.75785,-0.200619 -0.53193,0.03058 -0.77303,0.05505 -1.19049,0.174929 -0.27566,0.08075 -0.46122,0.315608 -0.73017,0.406127 -0.95003,0.319277 -1.95448,0.452616 -2.89244,0.81226 0.16119,0.222633 0.0859,0.303368 -0.5748,0.621422 -0.0296,0.01468 -2.97845,1.858155 -2.92936,2.256939 0.23339,0.134561 0.52907,0.105202 0.75055,0.274012 -0.2943,0.09175 -0.34762,0.108873 -0.41127,0.221418 m 106.44994,32.262646 c -0.33557,-0.502766 -0.65001,-0.836717 -2.20976,-2.22147 -1.40192,-1.244062 -1.67037,-1.522977 -1.79217,-1.86916 l 0.0472,-0.09786 c 0.20755,-0.04285 0.32313,-0.06602 1.0825,0.174925 -0.20134,-0.554136 -0.38777,-0.944365 -1.29254,-1.667318 -1.3547,-1.082605 -3.06979,-1.556002 -4.46674,-2.566429 -1.4367,-1.039785 -2.52046,-2.464898 -3.94349,-3.521809 -0.46234,-0.341294 -1.1372,-0.747422 -1.73251,-0.732747 -0.15411,0.01586 -0.19016,0.02574 -0.33557,0.07466 0.43376,0.503992 1.12477,0.698494 1.53491,1.231837 l 0.005,0.0076 c 2.16999,1.365177 6.9437,6.305985 9.23672,8.680362 1.991,2.059996 2.48442,2.543196 2.93556,2.87348 -0.38652,-0.494211 -0.58039,-0.811033 -0.83269,-1.35662 0.16033,0.0416 0.16033,0.0416 0.6848,0.398786 0.51453,0.34986 0.95946,0.653234 1.07878,0.592073 M 60.20171,38.888775 c 0.70195,-0.430588 3.898389,-2.58478 3.926974,-2.604357 l -0.108751,0.108872 c 0.353967,-0.04892 0.438475,-0.05994 1.506937,-0.6569 h 0.002 c 1.038015,-0.649555 2.509023,-0.574934 3.177539,-1.842246 -0.287458,0.01958 -0.545223,0.144346 -0.818522,0.216521 0.527698,-0.30093 1.045717,-0.61531 1.584112,-0.895442 -0.204948,0.207958 -0.437969,0.384112 -0.653482,0.578614 0.421447,-0.0575 1.477354,-0.737638 1.561744,-0.836722 l -0.32376,0.16025 c 0.31941,-0.188384 0.651,-0.359643 0.95735,-0.570047 l -0.32823,0.171258 c 0.022,-0.0526 0.022,-0.0526 1.41372,-1.288106 0.15449,0.03548 0.51665,0.118657 0.70642,-0.305821 l 0.0437,0.148018 c 0.50484,0.155354 0.76125,-0.31316 1.15049,-0.444052 -0.21985,0.01348 -0.21985,0.01348 -0.56897,0.190832 0.89335,-0.552923 0.93597,-0.561483 1.65309,-0.699714 0.90976,-0.293586 1.4904,-1.086267 2.32596,-1.493616 l -0.15349,0.0318 0.0171,-0.173702 c 0.55592,-0.330289 1.28222,-0.209183 1.79191,-0.660572 l -0.15001,-0.0098 c 0.18693,-0.102755 0.40827,-0.141901 0.56711,-0.297256 -0.12776,-0.0014 -0.12776,-0.0014 -0.6152,0.1419 1.94875,-1.009204 4.09699,-1.513193 6.11423,-2.34869 0.13584,-0.05627 0.31604,-0.135784 0.45189,-0.194501 -0.75875,-0.199392 -0.75875,-0.199392 -3.26727,0.687484 0.75935,-1.136426 2.75025,-0.150465 3.2101,-1.804334 -0.10838,-0.03548 -0.25976,-0.07585 -0.37384,-0.06973 -0.55493,0.06973 -1.28895,0.276456 -1.60599,0.40001 l -0.11895,0.0575 0.0607,-0.02448 -0.0233,0.0098 -0.0899,0.03912 -0.0296,0.0159 0.0262,-0.0159 0.006,-0.0049 0.0126,-0.0049 0.14368,-0.0734 c -0.86464,0.20184 -0.86464,0.20184 -1.78408,0.692372 0.14366,-0.123549 0.14366,-0.123549 0.48794,-0.330284 -0.23553,0.08808 -0.45053,0.217743 -0.68021,0.311937 l 0.14416,-0.08074 c -0.11309,0.04892 -0.26509,0.118657 -0.37869,0.172481 0.11609,-0.06117 0.27095,-0.141901 0.3869,-0.200618 -0.27517,0.129665 -0.61457,0.300923 -0.9525,0.473405 -5.41552,2.762155 -10.58581,5.925548 -15.470256,9.449799 -2.751758,1.98538 -5.407805,4.089411 -7.970648,6.297421 1.156947,-0.977399 3.342594,-2.787849 3.999921,-3.196419 -0.299143,0.283797 -0.643285,0.513776 -0.963688,0.77188 M 88.325441,28.54225 c 0.33793,-0.05138 0.70929,-0.231199 1.59381,-0.672803 1.08263,-0.539461 1.22978,-0.595731 1.42776,-0.548027 0.0442,0.09175 -0.004,0.31316 -0.81268,0.749868 0.17051,0.09175 0.41324,0.07829 1.07977,-0.05872 0.51117,-0.105203 0.56946,-0.112547 0.83356,-0.138231 0.0947,-0.324166 0.11695,-0.402458 -0.0184,-0.58473 -0.1914,-0.255739 -0.51801,-0.294884 -0.76472,-0.463695 0.47389,-0.01837 1.35593,-0.05504 2.9183,-0.316828 1.24133,-0.207956 0.84761,-0.867303 0.8389,-0.873416 -0.14615,-0.101533 -0.48992,-0.0942 -0.67485,-0.08931 -1.26222,0.08196 -2.41582,0.444051 -2.75312,0.6202 l -0.0107,0.04159 c -0.17624,0.02201 -0.35645,0.01222 -0.52821,0.06238 l -0.17437,0.141901 c 0.0927,0.03548 0.14951,0.05627 0.35931,0.06728 l -0.23738,0.09909 c -0.32823,-0.156577 -0.63745,-0.04527 -1.0676,0.385334 -0.0229,-0.187163 -0.30784,-0.333954 -0.14267,-0.541911 -0.14766,0.06605 -0.59619,0.267897 -0.96282,0.124771 l -0.16554,0.0171 c -0.19078,0.112541 -0.24323,0.362091 -0.45824,0.453833 l 0.0107,-0.167591 c -0.15883,-0.0049 -0.38454,0.352306 -0.32388,0.442831 0.0957,0.141899 0.17188,-0.0014 0.27826,-0.20062 0.22085,0.06361 0.44855,0.0526 0.67622,0.04038 0.26659,-0.01348 0.53306,-0.0269 0.78846,0.08196 -2.19732,0.831826 -2.19732,0.831826 -2.29203,0.984735 0.0705,0.204287 0.5773,0.342518 0.58214,0.342518 M 209.20775,66.787938 c 1.20306,0.642216 2.34149,1.399419 3.59675,1.943772 1.35344,0.58718 1.15334,0.02688 1.04522,-0.274015 0.0933,0.124783 0.18768,0.249556 0.27964,0.374329 0.0335,-0.217745 0.0609,-0.391445 0.43126,-0.496651 l -0.0261,-0.06487 c -0.13297,-0.769449 -0.13297,-0.769449 0.41636,-1.403097 -0.0871,0.494201 0.0821,0.994516 -0.0385,1.488726 l -0.22619,0.06363 -0.0224,-0.0085 c 0.174,0.716846 0.15537,0.787791 0.0907,1.025112 l -0.20756,-0.0379 -0.0212,-0.01957 c 0.36913,0.474622 0.98184,0.599405 1.42677,0.965166 -0.0274,0.281345 -0.25354,1.716251 -2.03949,2.409845 2.10039,1.73583 3.64398,4.685144 5.77917,8.765991 -0.15288,-0.31194 -0.15288,-0.31194 -0.17773,-0.437939 0.0186,0.02204 1.96989,2.740139 1.95622,4.210512 l -0.0769,0.06972 c -0.64006,-0.364534 -0.55431,-1.171891 -1.02908,-1.63674 l -0.0795,0.111323 c 0.0597,0.240977 0.21378,0.450164 0.24485,0.702159 -0.18519,-0.167592 -0.18519,-0.167592 -0.32562,-0.162699 0.0186,0.402462 0.32685,0.765772 0.1715,1.192693 -0.21252,-0.05015 -0.71835,-0.458731 -0.45861,-0.790231 l -0.20878,-0.127224 c -0.11061,0.14435 -0.19017,0.248322 0.12056,0.988409 -0.22372,-0.06116 -0.31073,-0.06972 -0.62391,-0.05871 h -0.0124 -0.015 -0.0124 -0.015 -0.0124 -0.0137 -0.0137 -0.0137 c -0.35919,-0.0057 -0.41388,-0.02327 -0.6438,-0.113765 0.041,0.203061 0.16157,0.822032 0.0137,1.633065 l -0.002,0.0085 c -0.20755,0.924796 -0.71214,0.22142 -0.87745,-0.0085 -0.16777,-0.244654 -0.26099,-0.397562 -0.48469,-0.765763 0.0485,0.254438 0.0982,0.5101 0.14665,0.765763 l 0.0336,0.188384 c 0.0808,0.439156 0.15785,0.880762 0.23116,1.321143 -0.42256,-0.307041 -0.6152,-0.358418 -0.73202,-0.196943 -0.0759,0.102746 -0.0733,0.417129 -0.0721,0.568819 0.004,0.510111 -0.0101,0.612856 -0.0708,0.831825 -0.6848,-0.784113 -1.28881,-1.193917 -2.08671,-1.412878 0.66119,-0.0379 0.93709,-0.430598 1.3062,-1.30035 0.32688,-0.779222 0.45987,-1.063019 0.86254,-1.344375 -0.91473,-1.10829 -3.74962,-0.03058 -4.15727,1.023885 0.26472,0.08805 0.33432,0.124772 0.61272,0.32049 1.37581,1.118083 2.20229,3.324869 2.36759,4.159134 0.22868,1.15356 -0.28461,0.978625 -0.4238,0.872195 -1.06511,-0.803682 -1.56597,-2.045311 -2.41731,-3.015368 l -0.0858,-0.05871 c -0.0274,0.04892 -0.0372,0.06601 -0.0571,0.347409 -0.12427,-0.333949 -0.19636,-0.453831 -0.61022,-0.868517 -0.48595,-0.485642 -0.55927,-0.768223 -0.37657,-1.436132 0.28087,-0.880752 1.82944,-5.189127 4.68174,-3.570738 -1.65047,-3.148708 -0.93089,-3.163383 -0.50212,-3.170726 0.85633,-0.01586 0.86874,-3.901022 -2.30171,-6.851562 0.39771,0.272789 0.86501,0.439156 1.22171,0.775556 -0.19761,-0.298473 -0.19761,-0.298473 -0.86998,-1.12419 l -0.009,0.107647 c -0.0957,0.09542 -0.16531,0.162701 -0.60401,-0.0028 -0.0372,-0.01472 -3.40287,-1.685677 -1.47277,-2.710777 -0.22246,-0.08682 -0.50955,-0.27524 -0.63632,-0.475858 -0.58662,-0.92112 -0.92715,-1.967024 -1.50632,-2.89182 -0.1106,-0.118647 -0.25726,-0.277681 -0.36788,-0.397561"
       style="fill:#333333;fill-opacity:1;fill-rule:nonzero;stroke:none;stroke-width:0.123301"
       id="path202" /></g></svg>
